<svg width="72" height="72" viewBox="0 0 72 72" fill="none" xmlns="http://www.w3.org/2000/svg">
<g id="flexible icon">
<path d="M0 4C0 1.79086 1.79086 0 4 0H68C70.2091 0 72 1.79086 72 4V68C72 70.2091 70.2091 72 68 72H4C1.79086 72 0 70.2091 0 68V4Z" fill="#EDF2F7"/>
<path d="M39.2113 37.9343L47.2127 45.9357C49.4824 43.39 50.8044 40.198 50.9999 36.7929H39.6841C39.5895 37.1972 39.4303 37.5816 39.2113 37.9343Z" fill="#170707"/>
<path d="M35.935 39.76C33.8115 39.76 32.0836 38.0323 32.0836 35.9088C32.0836 34.0894 33.3523 32.5617 35.0509 32.1609V20.8439C31.3525 21.0563 27.9049 22.5968 25.2641 25.2376C22.4137 28.088 20.844 31.8777 20.844 35.9088C20.844 39.9396 22.4137 43.7294 25.2641 46.5797C28.1144 49.4301 31.9042 50.9999 35.935 50.9999C39.6698 50.9999 43.197 49.6514 45.9623 47.1864L37.9606 39.1848C37.358 39.5591 36.6621 39.76 35.935 39.76Z" fill="#170707"/>
<path d="M39.6829 35.0244H50.9999C50.7875 31.326 49.247 27.8786 46.606 25.2376C43.9652 22.5968 40.5178 21.0563 36.8192 20.8439V32.1609C38.2339 32.4948 39.349 33.6099 39.6829 35.0244Z" fill="#170707"/>
</g>
</svg>
