<svg width="216" height="119" viewBox="0 0 216 119" fill="none" xmlns="http://www.w3.org/2000/svg">
<g id="Welcome" clip-path="url(#clip0_58_5210)">
<g id="Group">
<g id="Group_2">
<path id="Vector" d="M210.022 46.0786L207.743 51.8669L209.359 52.4939L211.638 46.7056L210.022 46.0786Z" fill="#DF9BFB"/>
<path id="Vector_2" d="M67.6423 31.8847L66.3499 33.0337L70.5269 37.6632L71.8193 36.5142L67.6423 31.8847Z" fill="#7C89EF"/>
<path id="Vector_3" d="M86.7925 52.6055L81.7815 56.3313L82.8218 57.7099L87.8328 53.984L86.7925 52.6055Z" fill="#DF9BFB"/>
<path id="Vector_4" d="M144.751 9.85028L143.562 11.1045L148.121 15.3636L149.31 14.1094L144.751 9.85028Z" fill="#DF9BFB"/>
<path id="Vector_5" d="M111.595 11.2355L108.475 16.6235L109.979 17.4819L113.1 12.0938L111.595 11.2355Z" fill="#7C89EF"/>
<path id="Vector_6" d="M156.909 57.3121L155.442 58.2312L158.783 63.487L160.25 62.5679L156.909 57.3121Z" fill="#7C89EF"/>
<path id="Vector_7" d="M88.8729 82.9051L87.3208 83.6748L90.1189 89.2344L91.671 88.4647L88.8729 82.9051Z" fill="#7C89EF"/>
<path id="Vector_8" d="M66.1653 68.277L64.3674 74.23L66.0291 74.7245L67.827 68.7715L66.1653 68.277Z" fill="#DF9BFB"/>
<path id="Vector_9" d="M174.776 86.8273L169.576 90.2887L170.542 91.719L175.742 88.2577L174.776 86.8273Z" fill="#DF9BFB"/>
<path id="Vector_10" d="M175.554 0.000496075L172.434 5.38843L173.938 6.24674L177.059 0.858808L175.554 0.000496075Z" fill="#7C89EF"/>
<path id="Vector_11" d="M2.11569 44.0798L0.499756 44.7068L2.77904 50.4951L4.39498 49.8681L2.11569 44.0798Z" fill="#7C89EF"/>
<path id="Vector_12" d="M169.861 36.9288L168.821 38.3074L173.832 42.0332L174.872 40.6546L169.861 36.9288Z" fill="#7C89EF"/>
<path id="Vector_13" d="M29.1013 11.5358L24.5415 15.7949L25.7305 17.0491L30.2903 12.79L29.1013 11.5358Z" fill="#DF9BFB"/>
<path id="Vector_14" d="M79.606 6.46393L78.1018 7.32227L81.2223 12.7103L82.7265 11.852L79.606 6.46393Z" fill="#DF9BFB"/>
<path id="Vector_15" d="M18.2549 74.1139L14.9136 79.3696L16.3808 80.2887L19.7221 75.033L18.2549 74.1139Z" fill="#7C89EF"/>
<path id="Vector_16" d="M3.45516 88.5112L2.48877 89.9424L7.69162 93.404L8.65801 91.9729L3.45516 88.5112Z" fill="#DF9BFB"/>
<path id="Vector_17" d="M204.184 19.8773L202.68 20.7356L205.801 26.1235L207.305 25.2652L204.184 19.8773Z" fill="#DF9BFB"/>
</g>
<g id="Group_3">
<path id="Vector_18" d="M138.998 34.5605L134.821 39.1899L136.113 40.3389L140.29 35.7094L138.998 34.5605Z" fill="#DF9BFB"/>
<path id="Vector_19" d="M102.328 86.7425L99.5298 92.3021L101.082 93.0718L103.88 87.5122L102.328 86.7425Z" fill="#7C89EF"/>
<path id="Vector_20" d="M125.036 72.1146L123.375 72.6091L125.172 78.5621L126.834 78.0677L125.036 72.1146Z" fill="#DF9BFB"/>
<g id="Group_4">
<path id="Vector_21" d="M125.596 75.512L119.682 71.05C119.552 70.952 119.403 70.8819 119.244 70.8442C119.086 70.8066 118.921 70.8021 118.76 70.8312C118.6 70.8602 118.447 70.9221 118.312 71.0129C118.177 71.1037 118.062 71.2215 117.975 71.3587C117.823 71.6169 117.773 71.9221 117.834 72.215C117.896 72.508 118.065 72.7678 118.308 72.9442L119.576 73.9009L114.198 72.7091C113.602 72.5662 112.779 72.7692 112.662 73.443C112.599 73.6993 112.627 73.9691 112.739 74.2082C112.851 74.4473 113.041 74.6417 113.279 74.7596C113.276 74.7648 113.274 74.7703 113.272 74.7759C113.272 74.7804 113.272 74.7848 113.272 74.7893L112.353 74.5691C112.183 74.5283 112.006 74.5258 111.835 74.5617C111.664 74.5976 111.502 74.6709 111.363 74.7764C111.224 74.8819 111.111 75.0169 111.031 75.1715C110.951 75.3262 110.907 75.4965 110.902 75.6702C110.899 75.9438 110.991 76.2101 111.163 76.4243C111.334 76.6386 111.575 76.7879 111.844 76.8473L112.234 76.941C112.237 76.9534 112.241 76.9654 112.248 76.9763C111.969 76.9738 111.698 77.07 111.484 77.2474C111.27 77.4249 111.127 77.6722 111.08 77.945C111.037 78.245 111.109 78.5501 111.283 78.7993C111.456 79.0486 111.718 79.2237 112.016 79.2896L112.988 79.5225C112.972 79.5289 112.957 79.5389 112.946 79.5518C112.935 79.5646 112.927 79.58 112.923 79.5966C112.919 79.6166 112.921 79.6373 112.928 79.6562C112.679 79.7225 112.459 79.8681 112.302 80.0707C112.144 80.2733 112.058 80.5217 112.057 80.7776C112.061 81.0464 112.156 81.306 112.327 81.5143C112.498 81.7227 112.735 81.8676 112.999 81.9256L121.192 83.8902C122.338 84.1649 123.54 84.0937 124.645 83.6856C125.751 83.2776 126.708 82.5513 127.394 81.5999C127.986 80.7795 128.233 79.7623 128.081 78.7645C127.929 77.7666 127.392 76.8668 126.582 76.2562L125.596 75.512Z" fill="#E98862"/>
<g id="Group_5" opacity="0.2">
<path id="Vector_22" d="M118.597 75.9656C118.59 75.9929 118.572 76.0165 118.548 76.0312C118.524 76.046 118.495 76.0508 118.468 76.0446L113.354 74.9037C113.34 74.9006 113.327 74.8948 113.315 74.8866C113.303 74.8785 113.293 74.8681 113.286 74.8562C113.278 74.8442 113.273 74.8309 113.271 74.8169C113.268 74.803 113.269 74.7887 113.272 74.7749C113.275 74.7611 113.281 74.7481 113.289 74.7365C113.297 74.725 113.308 74.7151 113.32 74.7076C113.332 74.7 113.345 74.6949 113.359 74.6925C113.373 74.6901 113.387 74.6904 113.401 74.6936L118.515 75.8345C118.529 75.8376 118.542 75.8434 118.554 75.8516C118.566 75.8598 118.575 75.8702 118.583 75.8822C118.591 75.8942 118.596 75.9076 118.598 75.9215C118.601 75.9355 118.6 75.9499 118.597 75.9637L118.597 75.9656Z" fill="#0C0C0C"/>
</g>
<g id="Group_6" opacity="0.2">
<path id="Vector_23" d="M118.152 78.2181C118.145 78.2456 118.128 78.2694 118.103 78.2842C118.079 78.2989 118.05 78.3036 118.022 78.2971L112.315 77.0248C112.301 77.0217 112.288 77.0159 112.276 77.0078C112.264 76.9996 112.255 76.9892 112.247 76.9772C112.239 76.9652 112.234 76.9518 112.232 76.9378C112.229 76.9238 112.23 76.9095 112.233 76.8957C112.24 76.8682 112.258 76.8445 112.282 76.8294C112.306 76.8143 112.335 76.8089 112.363 76.8143L118.07 78.0866C118.084 78.0897 118.097 78.0955 118.109 78.1037C118.121 78.1118 118.131 78.1222 118.138 78.1342C118.146 78.1462 118.151 78.1596 118.153 78.1736C118.156 78.1876 118.155 78.2019 118.152 78.2157V78.2181Z" fill="#0C0C0C"/>
</g>
<g id="Group_7" opacity="0.2">
<path id="Vector_24" d="M117.685 80.6607C117.679 80.688 117.661 80.7116 117.637 80.7263C117.613 80.7411 117.584 80.7459 117.556 80.7397L113.004 79.7249C112.976 79.7187 112.951 79.7016 112.936 79.6775C112.921 79.6534 112.916 79.6242 112.922 79.5963C112.928 79.5684 112.945 79.5442 112.97 79.5289C112.994 79.5136 113.023 79.5086 113.051 79.5148L117.604 80.5296C117.618 80.5327 117.631 80.5385 117.643 80.5467C117.654 80.5548 117.664 80.5652 117.672 80.5772C117.68 80.5892 117.685 80.6026 117.687 80.6166C117.69 80.6306 117.689 80.6449 117.686 80.6588L117.685 80.6607Z" fill="#0C0C0C"/>
</g>
</g>
<g id="Group_8">
<path id="Vector_25" d="M97.5209 44.8215L100.823 38.2166C100.895 38.0715 100.997 37.943 101.123 37.8392C101.248 37.7354 101.394 37.6587 101.551 37.6139C101.707 37.5691 101.872 37.5572 102.034 37.579C102.195 37.6008 102.351 37.6558 102.49 37.7404C102.742 37.9046 102.924 38.1558 103 38.4454C103.076 38.735 103.041 39.0423 102.902 39.3078L102.194 40.7241L106.479 37.2856C106.949 36.8948 107.777 36.7138 108.184 37.2658C108.354 37.468 108.451 37.7217 108.457 37.9853C108.464 38.2489 108.38 38.507 108.22 38.7174C108.225 38.7208 108.229 38.7248 108.233 38.7292C108.236 38.733 108.238 38.7369 108.239 38.741L108.964 38.1383C109.098 38.0268 109.256 37.9464 109.425 37.903C109.595 37.8597 109.772 37.8544 109.944 37.8876C110.116 37.9207 110.278 37.9916 110.419 38.0949C110.559 38.1981 110.675 38.3313 110.757 38.4846C110.882 38.7287 110.919 39.0079 110.861 39.2754C110.803 39.543 110.655 39.7828 110.44 39.9548L110.132 40.2111C110.135 40.2234 110.136 40.2362 110.135 40.2488C110.384 40.1236 110.669 40.0903 110.94 40.1549C111.212 40.2194 111.451 40.3776 111.615 40.6012C111.788 40.8512 111.859 41.1566 111.815 41.4565C111.771 41.7564 111.614 42.0287 111.377 42.219L110.611 42.8556C110.628 42.8541 110.646 42.8567 110.662 42.8632C110.678 42.8697 110.692 42.88 110.703 42.893C110.715 42.9093 110.723 42.9288 110.725 42.9492C110.977 42.8987 111.24 42.9321 111.472 43.0441C111.703 43.1562 111.892 43.3408 112.007 43.5694C112.124 43.812 112.155 44.0866 112.095 44.3487C112.035 44.6108 111.887 44.8452 111.676 45.0137L105.216 50.3857C104.312 51.1372 103.202 51.6037 102.03 51.7253C100.857 51.847 99.6747 51.6182 98.6339 51.0683C97.7366 50.5943 97.0608 49.7916 96.7501 48.8309C96.4395 47.8702 96.5183 46.8271 96.97 45.9232L97.5209 44.8215Z" fill="#E98862"/>
<g id="Group_9" opacity="0.2">
<path id="Vector_26" d="M103.995 42.1418C104.013 42.1635 104.039 42.1772 104.068 42.1798C104.096 42.1824 104.125 42.1738 104.147 42.1558L108.218 38.8798C108.241 38.8618 108.255 38.8357 108.258 38.8073C108.261 38.7789 108.252 38.7505 108.234 38.7283C108.216 38.7062 108.19 38.692 108.161 38.6891C108.133 38.6861 108.104 38.6945 108.082 38.7125L104.01 41.9886C103.988 42.0065 103.974 42.0324 103.971 42.0606C103.968 42.0889 103.976 42.1171 103.994 42.1393L103.995 42.1418Z" fill="#0C0C0C"/>
</g>
<g id="Group_10" opacity="0.2">
<path id="Vector_27" d="M105.401 43.9642C105.419 43.9858 105.445 43.9994 105.474 44.002C105.502 44.0046 105.531 43.9959 105.553 43.9779L110.097 40.3219C110.119 40.304 110.133 40.278 110.136 40.2498C110.139 40.2216 110.13 40.1934 110.112 40.1712C110.094 40.15 110.068 40.1366 110.04 40.1337C110.011 40.1307 109.983 40.1384 109.961 40.1553L105.415 43.8107C105.393 43.8286 105.379 43.8545 105.376 43.8827C105.373 43.911 105.381 43.9392 105.399 43.9614L105.401 43.9642Z" fill="#0C0C0C"/>
</g>
<g id="Group_11" opacity="0.2">
<path id="Vector_28" d="M106.912 45.9464C106.931 45.9681 106.957 45.9818 106.985 45.9844C107.014 45.987 107.042 45.9784 107.064 45.9604L110.689 43.0441C110.711 43.0261 110.725 43 110.728 42.9716C110.731 42.9432 110.723 42.9148 110.705 42.8926C110.687 42.8705 110.66 42.8563 110.632 42.8534C110.603 42.8504 110.574 42.8588 110.552 42.8768L106.927 45.7931C106.904 45.8111 106.89 45.837 106.887 45.8652C106.884 45.8934 106.893 45.9217 106.911 45.9438L106.912 45.9464Z" fill="#0C0C0C"/>
</g>
</g>
<g id="Group_12">
<path id="Vector_29" d="M23.4234 39.1585C23.4234 39.1585 22.9578 46.0935 21.3861 48.609C16.8608 55.8526 15.5498 64.0012 20.0814 68.2587C24.613 72.5161 53.5169 72.5751 55.7067 62.7831C57.5501 54.5392 53.5941 53.6527 52.6314 46.8528C52.1959 43.7757 50.9977 37.3232 50.9977 37.3232" fill="#0A0A0A"/>
<path id="sk" d="M48.226 61.3475C48.1761 61.3411 47.6224 70.4603 36.9498 69.6653C29.5613 69.1157 26.927 61.3342 26.7578 61.3342C27.5544 61.1661 28.8958 60.9217 29.2495 60.7342C30.413 60.1138 31.852 59.468 32.2276 57.2252C32.4445 55.9336 32.0769 49.3199 32.1899 48.0115L43.5311 50.525C43.3725 53.2872 42.2635 59.6903 46.1509 60.8235C46.7976 61.0115 47.4945 61.1839 48.226 61.3475Z" fill="#E98862"/>
<path id="sh" opacity="0.5" d="M43.6901 58.2071C43.5124 57.6388 43.398 57.0529 43.3489 56.4599C43.2243 55.1067 43.2492 53.744 43.4231 52.3962C41.1181 52.0873 38.9467 51.1429 37.1554 49.6702C36.9449 50.4421 35.7865 53.8155 36.1073 54.5492C36.713 55.9362 39.5612 58.2071 43.6901 58.2071Z" fill="#0C0C0C"/>
<path id="Vector_30" d="M42.2237 55.3662C37.7522 55.7968 31.9668 54.0203 30.7684 48.1095L29.687 42.7763C28.4886 36.8657 30.6445 31.4494 36.251 30.3293C41.8576 29.2099 47.0196 33.1634 48.2181 39.0742L48.6969 41.4353C49.1567 43.7033 50.2014 54.5998 42.2237 55.3662Z" fill="#E98862"/>
<path id="Vector_31" opacity="0.1" d="M39.3812 47.6207C40.1171 47.5335 40.6614 47.0286 40.597 46.4928C40.5326 45.9571 39.8839 45.5934 39.148 45.6806C38.4122 45.7677 37.8679 46.2727 37.9323 46.8084C37.9967 47.3442 38.6454 47.7078 39.3812 47.6207Z" fill="#0C0C0C"/>
<path id="Vector_32" opacity="0.1" d="M47.1567 45.4787C47.2218 46.0136 47.8713 46.3768 48.6071 46.2907C48.7343 46.2756 48.8595 46.2473 48.9808 46.2065C49.0151 45.5687 49.017 44.9551 48.9984 44.387C48.794 44.3363 48.5819 44.3239 48.3729 44.3506C47.6371 44.4368 47.0929 44.9416 47.1567 45.4787Z" fill="#0C0C0C"/>
<path id="Vector_33" opacity="0.5" d="M43.9052 47.1322C43.9088 47.1318 43.9124 47.1313 43.916 47.1305C44.1433 47.0835 44.3677 47.024 44.5883 46.9524C44.9175 46.8431 45.3474 46.6635 45.2884 46.368C45.2203 46.0313 43.5534 42.5832 43.3643 42.1916C43.3565 42.174 43.3453 42.158 43.3312 42.1448C43.3171 42.1315 43.3004 42.1212 43.2822 42.1145C43.264 42.1078 43.2447 42.1047 43.2253 42.1056C43.2059 42.1065 43.1868 42.1112 43.1693 42.1196C43.1518 42.1279 43.1362 42.1397 43.1234 42.1542C43.1106 42.1686 43.1008 42.1855 43.0947 42.2038C43.0886 42.2221 43.0863 42.2415 43.0879 42.2607C43.0895 42.2799 43.095 42.2986 43.104 42.3156C43.8147 43.784 44.9594 46.1983 45.0054 46.425C44.9694 46.5307 44.4233 46.7372 43.8596 46.85C43.8409 46.853 43.823 46.8596 43.8069 46.8695C43.7908 46.8793 43.7768 46.8923 43.7657 46.9075C43.7546 46.9227 43.7466 46.94 43.7423 46.9583C43.7379 46.9766 43.7372 46.9956 43.7402 47.0141C43.7433 47.0327 43.7499 47.0505 43.7599 47.0665C43.7698 47.0825 43.7828 47.0964 43.7982 47.1074C43.8135 47.1184 43.8309 47.1263 43.8494 47.1306C43.8678 47.1349 43.8869 47.1356 43.9056 47.1326L43.9052 47.1322Z" fill="#0C0C0C"/>
<path id="Vector_34" d="M25.2134 44.6911L30.2397 43.7165C34.0365 42.1405 35.1138 35.5722 35.1138 35.5722C35.1138 35.5722 39.7995 40.002 50.9985 37.3233C50.9985 37.3233 48.5658 21.805 32.0296 26.5165C26.6977 28.0353 22.9209 33.43 23.4826 40.5754C23.8762 45.5814 25.2134 44.6911 25.2134 44.6911Z" fill="#0A0A0A"/>
<path id="Vector_35" d="M31.4816 49.8406C29.7779 50.1809 28.0299 48.6475 27.6863 46.9559C27.3428 45.2643 28.5356 44.0561 30.2394 43.7156L31.3472 44.6735L32.9462 49.5476L31.4816 49.8406Z" fill="#E98862"/>
<path id="Vector_36" d="M44.5721 39.442C44.9984 39.1428 45.4969 38.961 46.017 38.915C46.2783 38.8902 46.5419 38.9047 46.7988 38.9581C47.0579 39.0105 47.3093 39.095 47.5472 39.2095L47.5546 39.213C47.581 39.2245 47.6108 39.2254 47.6378 39.2154C47.6648 39.2053 47.6868 39.1852 47.6991 39.1593C47.7113 39.1335 47.7129 39.1038 47.7034 39.0768C47.694 39.0498 47.6743 39.0275 47.6485 39.0147C47.3964 38.8826 47.1286 38.7825 46.8513 38.7168C46.5721 38.6494 46.2842 38.6241 45.9974 38.6416C45.4165 38.6735 44.8549 38.8593 44.3709 39.1798C44.3528 39.192 44.3374 39.2075 44.3254 39.2256C44.3134 39.2436 44.3051 39.2639 44.301 39.2851C44.297 39.3064 44.2971 39.3282 44.3015 39.3494C44.306 39.3706 44.3146 39.3907 44.3268 39.4086C44.3391 39.4265 44.3548 39.4418 44.373 39.4536C44.3913 39.4655 44.4117 39.4736 44.4331 39.4776C44.4545 39.4816 44.4765 39.4814 44.4978 39.477C44.5192 39.4725 44.5394 39.4639 44.5574 39.4517L44.5613 39.4491L44.5721 39.442Z" fill="#0C0C0C"/>
<path id="Vector_37" d="M39.9808 40.0718C39.41 39.9591 38.8192 40.0005 38.2701 40.1917C37.9986 40.2845 37.7428 40.4172 37.511 40.5855C37.2802 40.7515 37.0713 40.9458 36.8895 41.1637C36.8711 41.1853 36.8619 41.2132 36.8638 41.2415C36.8657 41.2697 36.8785 41.2962 36.8996 41.3152C36.9207 41.3343 36.9484 41.3445 36.9769 41.3438C37.0054 41.343 37.0325 41.3313 37.0525 41.3111L37.0584 41.3051C37.2339 41.1089 37.4335 40.9353 37.6526 40.7885C37.8694 40.6417 38.1074 40.5282 38.3583 40.452C38.8565 40.2967 39.3872 40.2751 39.8964 40.3896L39.909 40.3928C39.9517 40.4031 39.9968 40.3961 40.0344 40.3733C40.0719 40.3506 40.0988 40.314 40.1092 40.2716C40.1195 40.2292 40.1125 40.1844 40.0896 40.1471C40.0667 40.1099 40.0298 40.0832 39.9871 40.0729L39.9808 40.0718Z" fill="#0C0C0C"/>
<path id="Vector_38" d="M30.2433 43.6343C33.622 42.3857 34.7432 40.0697 35.0885 38.3463C35.3119 37.1968 35.291 36.0137 35.0271 34.8728L34.9226 34.9014C35.1825 36.0275 35.2026 37.195 34.9815 38.3293C34.6406 40.0245 33.5354 42.3034 30.2053 43.5337L30.2433 43.6343Z" fill="#0C0C0C"/>
</g>
<path id="Vector_39" d="M56.9182 62.4323L88.9998 73.077L79.5807 77.2328L95.5776 44.6575L108.651 50.7054L93.8092 83.8147C93.0585 85.489 91.726 86.8393 90.0552 87.6188C88.3843 88.3984 86.4866 88.5552 84.7089 88.0605L84.3899 87.9707L51.8228 78.8948L56.9182 62.4323Z" fill="#DF9BFB"/>
<path id="b_1_b" d="M36.7509 67.3854C29.3572 67.0395 29.046 60.8103 29.046 60.8103C29.046 60.8103 25.3826 61.0454 22.9473 61.3724C18.9603 61.9078 16.33 63.2498 14.2368 65.3274C12.2897 67.2604 11.1042 69.3515 12.3586 82.7025C13.2669 92.3696 12.6278 113.633 12.6278 113.633H57.6834C57.6834 113.633 60.8296 82.9132 61.2026 78.5623C61.9144 70.2551 63.9255 68.4211 59.8508 64.1419C56.8959 61.0385 49.2674 60.8103 46.1969 60.8107C46.1468 60.8107 46.8199 67.8567 36.7509 67.3854Z" fill="#DF9BFB"/>
<path id="Vector_40" d="M45.4041 48.2975C43.9513 49.0307 42.2938 49.2626 40.6934 48.9564C40.638 48.9461 40.5808 48.9517 40.5284 48.9724C40.4761 48.9932 40.4308 49.0283 40.3978 49.0737C40.3648 49.119 40.3455 49.1728 40.3421 49.2287C40.3387 49.2845 40.3514 49.3402 40.3787 49.3891C40.8558 50.2235 41.9875 51.6495 43.9289 51.0683C45.1825 50.6928 45.6564 49.4128 45.832 48.6208C45.844 48.566 45.84 48.509 45.8205 48.4564C45.801 48.4038 45.7668 48.3578 45.7218 48.3238C45.6769 48.2899 45.6231 48.2694 45.5669 48.2647C45.5106 48.26 45.4541 48.2714 45.4041 48.2975Z" fill="white"/>
<path id="Vector_41" d="M45.495 41.8839C45.8827 41.8839 46.197 41.5719 46.197 41.1871C46.197 40.8022 45.8827 40.4902 45.495 40.4902C45.1073 40.4902 44.793 40.8022 44.793 41.1871C44.793 41.5719 45.1073 41.8839 45.495 41.8839Z" fill="#0C0C0C"/>
<path id="Vector_42" d="M38.7494 43.056C39.1371 43.056 39.4514 42.7441 39.4514 42.3592C39.4514 41.9743 39.1371 41.6624 38.7494 41.6624C38.3617 41.6624 38.0474 41.9743 38.0474 42.3592C38.0474 42.7441 38.3617 43.056 38.7494 43.056Z" fill="#0C0C0C"/>
<path id="Vector_43" d="M61.1025 81.5891C61.0979 81.5894 61.0934 81.5894 61.0888 81.5891C61.0603 81.5855 61.0344 81.5709 61.0168 81.5484C60.9992 81.526 60.9912 81.4975 60.9947 81.4692L61.6924 75.8552C61.6939 75.8411 61.6982 75.8275 61.7052 75.815C61.7121 75.8026 61.7215 75.7917 61.7328 75.783C61.744 75.7743 61.757 75.7679 61.7708 75.7643C61.7846 75.7606 61.799 75.7598 61.8132 75.7618C61.8273 75.7635 61.841 75.768 61.8534 75.775C61.8658 75.782 61.8767 75.7913 61.8854 75.8025C61.8942 75.8136 61.9007 75.8264 61.9045 75.84C61.9082 75.8537 61.9093 75.8679 61.9075 75.8819L61.2098 81.4957C61.2064 81.5215 61.1936 81.5452 61.1738 81.5624C61.1541 81.5796 61.1287 81.5891 61.1025 81.5891Z" fill="#0C0C0C"/>
<g id="Group_13">
<path id="Vector_44" d="M175.149 38.2712C175.149 38.2712 172.461 35.2752 172.773 29.6645C173.014 25.3202 176.39 28.8335 176.39 28.8335C176.39 28.8335 176.595 25.7071 178.769 26.4515C180.943 27.1959 181.553 30.6433 181.553 30.6433" fill="#0C0C0C"/>
<path id="Vector_45" d="M190.253 29.094C190.253 29.094 201.109 32.4693 194.103 46.5958L193.108 46.4667L191.089 46.2051" fill="#0C0C0C"/>
<path id="sk_2" d="M174.811 61.3246C174.861 61.3181 175.412 70.407 186.05 69.6148C193.414 69.0671 196.039 61.3119 196.208 61.3119C195.414 61.1442 194.077 60.9007 193.724 60.7138C192.565 60.0953 191.13 59.4519 190.756 57.2167C190.541 55.9283 190.906 49.3376 190.794 48.0339L179.49 50.5382C179.648 53.2912 180.754 59.6732 176.879 60.8027C176.234 60.9896 175.539 61.1614 174.811 61.3246Z" fill="#E98862"/>
<path id="sh_2" opacity="0.52" d="M179.332 58.1948C179.509 57.6283 179.622 57.0443 179.671 56.4532C179.796 55.1044 179.771 53.7462 179.598 52.4028C181.895 52.0951 184.06 51.1538 185.845 49.686C186.055 50.4554 187.209 53.8176 186.89 54.5489C186.286 55.9312 183.447 58.1948 179.332 58.1948Z" fill="#0C0C0C"/>
<path id="Vector_46" d="M180.687 55.1168C185.139 55.5928 190.924 53.8854 192.183 48.0075L193.319 42.7038C194.577 36.8268 192.488 31.4047 186.912 30.2282C181.337 29.0517 176.149 32.9375 174.89 38.8153L174.387 41.1633C174.229 41.9725 174.126 42.7914 174.08 43.6144C173.941 45.7887 173.739 49.0964 174.75 51.5609C175.704 53.8876 177.843 54.8126 180.687 55.1168Z" fill="#E98862"/>
<path id="Vector_47" d="M177.151 41.5756C177.539 41.5756 177.853 41.2636 177.853 40.8787C177.853 40.4939 177.539 40.1819 177.151 40.1819C176.763 40.1819 176.449 40.4939 176.449 40.8787C176.449 41.2636 176.763 41.5756 177.151 41.5756Z" fill="#0C0C0C"/>
<path id="Vector_48" d="M183.818 42.2724C184.206 42.2724 184.52 41.9604 184.52 41.5755C184.52 41.1906 184.206 40.8787 183.818 40.8787C183.431 40.8787 183.116 41.1906 183.116 41.5755C183.116 41.9604 183.431 42.2724 183.818 42.2724Z" fill="#0C0C0C"/>
<path id="Vector_49" d="M191.453 49.7251C193.148 50.0826 194.906 48.5731 195.267 46.8912C195.627 45.2093 194.452 43.9921 192.758 43.6345L191.643 44.5772L189.996 49.4177L191.453 49.7251Z" fill="#E98862"/>
<g id="Group_14">
<g id="Group_15">
<path id="Vector_50" d="M190.308 46.6813C190.308 46.6813 191.409 38.2294 188.965 37.2105C187.339 36.532 182.744 38.1065 179.078 36.6312C177.475 35.9854 175.81 36.0823 175.492 36.8321C175.366 37.1289 175.221 32.476 178.509 29.6171C181.127 27.3408 188.082 27.9279 190.999 29.4214C199.078 33.5567 193.035 44.0711 193.035 44.0711L192.076 46.8697L190.308 46.6813Z" fill="#0C0C0C"/>
<g id="Group_16" opacity="0.52">
<path id="Vector_51" d="M178.977 47.286L178.966 47.2843C178.42 47.1704 177.517 46.9183 177.602 46.5134C177.673 46.1773 179.367 42.742 179.56 42.3514C179.577 42.3178 179.606 42.2922 179.642 42.2801C179.677 42.2679 179.717 42.2704 179.75 42.2869C179.784 42.3033 179.81 42.3325 179.822 42.3679C179.835 42.4033 179.832 42.4421 179.815 42.4757C179.064 43.9968 177.929 46.3429 177.88 46.5713C177.914 46.6789 178.459 46.8901 179.025 47.0078C179.06 47.0157 179.091 47.0369 179.111 47.0668C179.132 47.0968 179.14 47.1334 179.134 47.169C179.128 47.2047 179.108 47.2367 179.079 47.2584C179.05 47.2802 179.014 47.29 178.977 47.286Z" fill="#0C0C0C"/>
</g>
<path id="Vector_52" d="M178.851 38.6987C178.315 38.4299 177.715 38.3096 177.115 38.3506C176.82 38.369 176.53 38.4312 176.254 38.5351C175.98 38.6366 175.721 38.772 175.482 38.9381C175.442 38.9634 175.414 39.0032 175.403 39.049C175.393 39.0949 175.401 39.143 175.425 39.1831C175.45 39.2232 175.49 39.2519 175.536 39.2631C175.582 39.2744 175.631 39.2672 175.671 39.2432L175.684 39.236C175.903 39.1011 176.139 38.9941 176.385 38.9174C176.627 38.8405 176.88 38.8005 177.135 38.7988C177.638 38.7915 178.135 38.9163 178.574 39.1607L178.59 39.1704C178.621 39.1886 178.655 39.2005 178.69 39.2056C178.726 39.2106 178.762 39.2087 178.796 39.1999C178.831 39.191 178.864 39.1755 178.892 39.1541C178.921 39.1327 178.945 39.1059 178.963 39.0753C178.981 39.0447 178.993 39.0108 178.998 38.9756C179.003 38.9404 179 38.9046 178.991 38.8703C178.982 38.8359 178.966 38.8037 178.944 38.7755C178.923 38.7473 178.896 38.7236 178.865 38.7058L178.851 38.6987Z" fill="#0C0C0C"/>
<path id="Vector_53" d="M182.865 39.7758C183.353 39.6516 183.865 39.6575 184.35 39.7928C184.595 39.8595 184.829 39.9626 185.044 40.0987C185.262 40.2356 185.461 40.3991 185.638 40.5854L185.648 40.5951C185.682 40.6273 185.726 40.6454 185.773 40.6457C185.819 40.646 185.864 40.6284 185.898 40.5966C185.932 40.5649 185.952 40.5213 185.954 40.4752C185.957 40.429 185.941 40.3837 185.91 40.3488C185.722 40.1274 185.507 39.9305 185.269 39.7626C185.029 39.5919 184.765 39.4578 184.485 39.3648C183.916 39.1719 183.305 39.1347 182.716 39.2572C182.682 39.2647 182.649 39.279 182.619 39.2992C182.59 39.3194 182.565 39.3451 182.546 39.3748C182.507 39.4349 182.494 39.5079 182.509 39.5777C182.524 39.6475 182.567 39.7084 182.628 39.747C182.688 39.7856 182.762 39.7987 182.832 39.7835L182.846 39.7801L182.865 39.7758Z" fill="#0C0C0C"/>
</g>
<path id="Vector_54" d="M178.118 48.59C179.7 48.9822 181.367 48.8401 182.858 48.1862C182.91 48.1638 182.967 48.1565 183.022 48.1651C183.078 48.1737 183.13 48.1979 183.173 48.2348C183.215 48.2716 183.246 48.3197 183.262 48.3734C183.278 48.4271 183.278 48.4842 183.262 48.5379C182.985 49.4574 182.204 51.0997 180.181 50.9636C178.874 50.8762 178.124 49.7338 177.773 49.001C177.749 48.9502 177.74 48.8935 177.747 48.8377C177.754 48.782 177.777 48.7294 177.814 48.6862C177.85 48.643 177.898 48.6109 177.952 48.5939C178.006 48.5769 178.064 48.5755 178.118 48.59Z" fill="white"/>
</g>
<path id="Vector_55" d="M184.393 30.8213C185.148 29.0609 184.784 27.2206 183.579 26.7111C182.374 26.2016 180.785 27.2157 180.029 28.9762C179.274 30.7367 179.638 32.5769 180.843 33.0864C182.048 33.5959 183.637 32.5818 184.393 30.8213Z" fill="#0C0C0C"/>
</g>
<path id="b_1_b_2" d="M186.215 67.3854C193.609 67.0395 193.92 60.8103 193.92 60.8103C193.92 60.8103 197.583 61.0454 200.019 61.3724C204.006 61.9078 206.636 63.2498 208.729 65.3274C210.676 67.2604 211.862 69.3515 210.607 82.7025C209.699 92.3696 210.338 113.633 210.338 113.633H165.283C165.283 113.633 162.136 82.9141 161.763 78.5623C161.051 70.2551 159.04 68.4211 163.115 64.1419C166.07 61.0385 173.698 60.8103 176.769 60.8107C176.819 60.8107 176.146 67.8567 186.215 67.3854Z" fill="#DF9BFB"/>
<path id="Vector_56" d="M161.657 66.0659L150.008 90.5797L127.035 73.4318L117.911 85.4755L148.33 108.182C148.602 108.383 148.887 108.567 149.182 108.733C150.051 109.216 151.007 109.525 151.997 109.641C152.986 109.758 153.989 109.68 154.948 109.411C155.907 109.143 156.803 108.69 157.585 108.078C158.368 107.466 159.021 106.707 159.508 105.844L159.64 105.611L177.412 74.1228L161.657 66.0659Z" fill="#DF9BFB"/>
<path id="Vector_57" d="M212.067 113.848H6.88582C6.8283 113.848 6.77314 113.826 6.73247 113.785C6.69179 113.745 6.66895 113.69 6.66895 113.633C6.66895 113.576 6.69179 113.521 6.73247 113.481C6.77314 113.44 6.8283 113.418 6.88582 113.418H212.067C212.124 113.418 212.18 113.44 212.22 113.481C212.261 113.521 212.284 113.576 212.284 113.633C212.284 113.69 212.261 113.745 212.22 113.785C212.18 113.826 212.124 113.848 212.067 113.848Z" fill="#292A2E"/>
<g id="Group_17">
<path id="Vector_58" d="M167.439 81.6128H57.5659V118.892H167.439V81.6128Z" fill="white"/>
<path id="Vector_59" d="M167.547 119H57.4575V81.5051H167.547V119ZM57.6744 118.785H167.33V81.7204H57.6744V118.785Z" fill="#0C0C0C"/>
</g>
<g id="Group_18">
<path id="Vector_60" d="M52.1405 93.006L58.9228 89.9993C59.0718 89.9333 59.2331 89.8988 59.3963 89.898C59.5595 89.8972 59.7211 89.9301 59.8708 89.9947C60.0205 90.0593 60.155 90.1542 60.2657 90.2732C60.3764 90.3922 60.461 90.5328 60.514 90.686C60.603 90.9719 60.5819 91.2804 60.4548 91.5518C60.3276 91.8231 60.1035 92.0378 59.8259 92.1544L58.3715 92.8002L63.8825 92.8566C64.4954 92.8521 65.2501 93.236 65.2098 93.9186C65.2115 94.1823 65.1232 94.4389 64.9592 94.6463C64.7952 94.8538 64.5652 95 64.3067 95.0611C64.3082 95.0668 64.3091 95.0726 64.3093 95.0785C64.3087 95.0829 64.3077 95.0873 64.3065 95.0916L65.2516 95.085C65.4265 95.0838 65.5995 95.1215 65.7579 95.1951C65.9163 95.2687 66.0562 95.3764 66.1674 95.5105C66.2786 95.6445 66.3582 95.8014 66.4006 95.9699C66.443 96.1383 66.447 96.3141 66.4123 96.4842C66.3521 96.7513 66.2012 96.9897 65.985 97.1596C65.7688 97.3295 65.5004 97.4205 65.2247 97.4175L64.8226 97.4203C64.8173 97.4319 64.81 97.4424 64.8009 97.4515C65.073 97.5121 65.3145 97.6669 65.4822 97.8881C65.6499 98.1092 65.7329 98.3824 65.7164 98.6587C65.6895 98.9607 65.5488 99.2414 65.3225 99.4449C65.0962 99.6485 64.8009 99.7598 64.4956 99.7566L63.4967 99.7637C63.5107 99.7735 63.5222 99.7863 63.5304 99.8013C63.5385 99.8162 63.543 99.8329 63.5435 99.8498C63.5426 99.8702 63.5358 99.8898 63.524 99.9065C63.7513 100.027 63.9322 100.219 64.0391 100.452C64.146 100.685 64.1728 100.946 64.1154 101.196C64.0498 101.456 63.8974 101.687 63.683 101.851C63.4685 102.016 63.2046 102.103 62.9339 102.1L54.5061 102.159C53.3272 102.168 52.1727 101.826 51.1904 101.179C50.2082 100.532 49.443 99.6084 48.993 98.5268C48.605 97.5941 48.5986 96.548 48.9752 95.6107C49.3518 94.6734 50.0817 93.9188 51.0099 93.5072L52.1405 93.006Z" fill="#E98862"/>
<g id="Group_19" opacity="0.2">
<path id="Vector_61" d="M58.8513 95.0311C58.8517 95.0594 58.8633 95.0864 58.8836 95.1062C58.9039 95.1261 58.9313 95.1372 58.9598 95.1372L64.2007 95.184C64.2295 95.1842 64.2572 95.1731 64.2777 95.1531C64.2982 95.1331 64.3099 95.1058 64.3102 95.0773C64.3104 95.0487 64.2992 95.0213 64.2791 95.0009C64.2589 94.9805 64.2314 94.9689 64.2027 94.9687L58.9617 94.9218C58.9329 94.9218 58.9054 94.9331 58.885 94.9533C58.8647 94.9735 58.8533 95.0008 58.8533 95.0294L58.8513 95.0311Z" fill="#0C0C0C"/>
</g>
<g id="Group_20" opacity="0.2">
<path id="Vector_62" d="M58.767 97.3257C58.7674 97.354 58.779 97.381 58.7992 97.4008C58.8195 97.4207 58.8469 97.4318 58.8754 97.4318L64.7243 97.4841C64.753 97.4841 64.7806 97.4728 64.801 97.4526C64.8213 97.4324 64.8327 97.4051 64.8327 97.3765C64.8317 97.3483 64.82 97.3215 64.7999 97.3015C64.7797 97.2815 64.7527 97.2698 64.7243 97.2689L58.8754 97.2166C58.8611 97.2164 58.8468 97.2191 58.8336 97.2244C58.8203 97.2298 58.8082 97.2377 58.798 97.2477C58.7878 97.2577 58.7797 97.2696 58.7742 97.2828C58.7687 97.2959 58.7659 97.31 58.7659 97.3242L58.767 97.3257Z" fill="#0C0C0C"/>
</g>
<g id="Group_21" opacity="0.2">
<path id="Vector_63" d="M58.6609 99.8087C58.6613 99.837 58.6729 99.864 58.6932 99.8839C58.7135 99.9037 58.7408 99.9149 58.7693 99.9149L63.4349 99.9566C63.4637 99.9569 63.4914 99.9458 63.5119 99.9258C63.5324 99.9058 63.5441 99.8785 63.5444 99.85C63.5446 99.8214 63.5334 99.7939 63.5133 99.7736C63.4931 99.7532 63.4657 99.7416 63.4369 99.7413L58.7713 99.6996C58.7425 99.6996 58.7149 99.7109 58.6946 99.7311C58.6743 99.7513 58.6628 99.7787 58.6628 99.8072L58.6609 99.8087Z" fill="#0C0C0C"/>
</g>
</g>
<path id="b_4_b" d="M54.0817 104.993L16.4786 113.478C15.2294 113.613 13.9657 113.459 12.7866 113.028C11.6075 112.596 10.5452 111.9 9.68289 110.993C8.8206 110.085 8.18184 108.992 7.81672 107.799C7.4516 106.605 7.37005 105.344 7.57848 104.114L11.8817 69.7559C12.2396 67.6445 13.4278 65.7608 15.1849 64.519C16.942 63.2772 19.1241 62.7791 21.2512 63.1344C23.3783 63.4896 25.2761 64.6691 26.5271 66.4132C27.7781 68.1574 28.2798 70.3234 27.9219 72.4348L25.8497 97.0267L51.9752 91.1579L54.0817 104.993Z" fill="#DF9BFB"/>
<g id="b_4_st">
<path id="Vector_64" d="M20.5631 97.9931C20.5359 97.9929 20.5097 97.9825 20.4899 97.964C20.47 97.9455 20.4579 97.9203 20.4559 97.8933C20.4539 97.8664 20.4622 97.8397 20.4791 97.8185C20.496 97.7973 20.5204 97.7833 20.5473 97.7791L25.7872 96.6685C25.8013 96.6662 25.8157 96.6668 25.8296 96.6701C25.8434 96.6734 25.8565 96.6795 25.868 96.6879C25.8795 96.6963 25.8891 96.707 25.8964 96.7192C25.9037 96.7314 25.9084 96.7449 25.9104 96.7589C25.9146 96.7871 25.9074 96.8158 25.8903 96.8388C25.8732 96.8617 25.8477 96.8769 25.8193 96.8812L20.5794 97.9918C20.574 97.9927 20.5686 97.9931 20.5631 97.9931Z" fill="#0C0C0C"/>
</g>
<g id="b_4_st_2">
<path id="Vector_65" d="M17.6067 113.633C17.5779 113.635 17.5496 113.625 17.5279 113.606C17.5063 113.588 17.4931 113.561 17.4912 113.532C17.4893 113.504 17.499 113.476 17.518 113.454C17.537 113.433 17.5638 113.42 17.5926 113.418L53.8457 104.942L51.7915 91.3153L25.8219 96.8801C25.8051 96.8822 25.788 96.8804 25.772 96.8749C25.7561 96.8693 25.7416 96.8602 25.7297 96.8483C25.7179 96.8361 25.7091 96.8214 25.704 96.8053C25.699 96.7892 25.6978 96.7721 25.7006 96.7555L27.1574 82.7045C27.1596 82.6905 27.1645 82.677 27.172 82.6649C27.1796 82.6529 27.1894 82.6424 27.2011 82.6342C27.2127 82.6259 27.2259 82.6201 27.2399 82.617C27.2538 82.614 27.2682 82.6137 27.2823 82.6162C27.3107 82.621 27.336 82.6367 27.3526 82.66C27.3693 82.6832 27.376 82.7121 27.3712 82.7402L25.9399 96.647L51.842 91.0778C51.856 91.074 51.8705 91.073 51.8849 91.0748C51.8992 91.0767 51.913 91.0814 51.9255 91.0886C51.938 91.0959 51.9489 91.1056 51.9575 91.117C51.9662 91.1285 51.9725 91.1416 51.976 91.1555L54.0825 104.992C54.0892 105.019 54.0849 105.048 54.0706 105.072C54.0563 105.096 54.0332 105.114 54.006 105.121L17.6208 113.632C17.6161 113.633 17.6114 113.633 17.6067 113.633Z" fill="#0C0C0C"/>
</g>
<g id="Group_22">
<path id="Vector_66" d="M170.825 99.4643L164.043 96.4575C163.894 96.3915 163.733 96.357 163.569 96.3562C163.406 96.3554 163.245 96.3884 163.095 96.453C162.945 96.5176 162.811 96.6124 162.7 96.7314C162.589 96.8505 162.505 96.991 162.452 97.1443C162.363 97.4302 162.384 97.7387 162.511 98.01C162.638 98.2813 162.862 98.4961 163.14 98.6127L164.594 99.2585L159.083 99.3149C158.471 99.3104 157.716 99.6942 157.756 100.377C157.754 100.641 157.843 100.897 158.007 101.105C158.171 101.312 158.401 101.458 158.659 101.519C158.658 101.525 158.657 101.531 158.656 101.537C158.657 101.541 158.658 101.546 158.659 101.55L157.714 101.543C157.539 101.542 157.366 101.58 157.208 101.653C157.049 101.727 156.91 101.835 156.798 101.969C156.687 102.103 156.607 102.26 156.565 102.428C156.523 102.597 156.519 102.772 156.553 102.942C156.614 103.21 156.765 103.448 156.981 103.618C157.197 103.788 157.465 103.879 157.741 103.876L158.143 103.878C158.149 103.89 158.156 103.901 158.165 103.91C157.893 103.97 157.651 104.125 157.484 104.346C157.316 104.567 157.233 104.841 157.25 105.117C157.276 105.419 157.417 105.7 157.643 105.903C157.87 106.107 158.165 106.218 158.471 106.215L159.469 106.222C159.455 106.232 159.444 106.244 159.436 106.259C159.427 106.274 159.423 106.291 159.423 106.308C159.423 106.328 159.43 106.348 159.442 106.365C159.215 106.486 159.034 106.677 158.927 106.91C158.82 107.143 158.793 107.404 158.85 107.654C158.916 107.915 159.069 108.146 159.283 108.31C159.497 108.474 159.761 108.561 160.032 108.558L168.46 108.618C169.639 108.626 170.794 108.285 171.776 107.637C172.758 106.99 173.523 106.066 173.973 104.984C174.361 104.052 174.368 103.006 173.991 102.068C173.614 101.131 172.884 100.376 171.956 99.9648L170.825 99.4643Z" fill="#E98862"/>
<g id="Group_23" opacity="0.2">
<path id="Vector_67" d="M164.114 101.489C164.114 101.518 164.102 101.545 164.082 101.565C164.062 101.584 164.034 101.595 164.006 101.595L158.765 101.642C158.751 101.642 158.737 101.64 158.723 101.634C158.71 101.629 158.698 101.621 158.688 101.611C158.678 101.601 158.67 101.59 158.664 101.577C158.659 101.564 158.656 101.55 158.656 101.536C158.655 101.521 158.658 101.507 158.663 101.494C158.669 101.481 158.677 101.469 158.687 101.459C158.697 101.449 158.708 101.441 158.722 101.435C158.735 101.43 158.749 101.427 158.763 101.427L164.004 101.38C164.033 101.38 164.06 101.391 164.081 101.412C164.101 101.432 164.112 101.459 164.112 101.488L164.114 101.489Z" fill="#0C0C0C"/>
</g>
<g id="Group_24" opacity="0.2">
<path id="Vector_68" d="M164.199 103.784C164.199 103.812 164.187 103.839 164.167 103.859C164.147 103.879 164.12 103.89 164.092 103.89L158.242 103.942C158.214 103.942 158.186 103.931 158.166 103.911C158.145 103.891 158.134 103.863 158.134 103.835C158.135 103.806 158.147 103.78 158.167 103.76C158.187 103.74 158.214 103.728 158.242 103.727L164.091 103.675C164.12 103.675 164.148 103.686 164.168 103.706C164.188 103.727 164.2 103.754 164.2 103.782L164.199 103.784Z" fill="#0C0C0C"/>
</g>
<g id="Group_25" opacity="0.2">
<path id="Vector_69" d="M164.305 106.267C164.305 106.295 164.293 106.322 164.273 106.342C164.253 106.362 164.225 106.373 164.197 106.373L159.531 106.415C159.517 106.415 159.503 106.412 159.489 106.407C159.476 106.402 159.464 106.394 159.454 106.384C159.444 106.374 159.436 106.362 159.43 106.349C159.425 106.336 159.422 106.322 159.422 106.308C159.422 106.294 159.424 106.28 159.43 106.267C159.435 106.254 159.443 106.242 159.453 106.232C159.463 106.222 159.475 106.214 159.488 106.208C159.501 106.203 159.515 106.2 159.529 106.2L164.195 106.158C164.223 106.158 164.251 106.169 164.271 106.189C164.292 106.21 164.303 106.237 164.303 106.265L164.305 106.267Z" fill="#0C0C0C"/>
</g>
</g>
<path id="b_4_b_2" d="M171.053 111.451L206.487 113.478C207.736 113.613 209 113.459 210.179 113.028C211.358 112.597 212.421 111.9 213.283 110.993C214.145 110.085 214.784 108.992 215.149 107.799C215.514 106.605 215.596 105.344 215.387 104.114L211.085 69.7549C210.908 68.7095 210.525 67.7089 209.958 66.8103C209.391 65.9118 208.652 65.1328 207.782 64.518C206.912 63.9031 205.928 63.4644 204.887 63.2268C203.846 62.9892 202.769 62.9575 201.715 63.1334C200.662 63.3093 199.654 63.6894 198.749 64.252C197.844 64.8145 197.059 65.5486 196.44 66.4122C195.82 67.2758 195.378 68.2521 195.139 69.2853C194.899 70.3185 194.867 71.3883 195.045 72.4338L197.117 98.5326L171.208 97.6151L171.053 111.451Z" fill="#DF9BFB"/>
<g id="b_4_st_3">
<path id="Vector_70" d="M202.403 98.4237C202.43 98.4235 202.456 98.4132 202.476 98.3947C202.496 98.3762 202.508 98.351 202.51 98.324C202.512 98.2971 202.504 98.2703 202.487 98.2491C202.47 98.2279 202.446 98.2139 202.419 98.2097L197.179 98.1755C197.165 98.1732 197.15 98.1737 197.136 98.177C197.122 98.1804 197.109 98.1864 197.098 98.1949C197.086 98.2033 197.077 98.2139 197.069 98.2261C197.062 98.2383 197.057 98.2518 197.055 98.2659C197.051 98.2941 197.058 98.3229 197.076 98.3458C197.093 98.3687 197.118 98.384 197.147 98.3882L202.387 98.4224C202.392 98.4232 202.397 98.4237 202.403 98.4237Z" fill="#0C0C0C"/>
</g>
<g id="b_4_st_4">
<path id="Vector_71" d="M205.359 113.633C205.388 113.635 205.416 113.625 205.438 113.606C205.46 113.588 205.473 113.561 205.475 113.532C205.476 113.504 205.467 113.476 205.448 113.454C205.429 113.433 205.402 113.42 205.373 113.418L171.288 111.401L171.39 97.7745L197.143 98.388C197.16 98.3901 197.177 98.3883 197.193 98.3828C197.209 98.3772 197.224 98.3681 197.235 98.3561C197.247 98.344 197.256 98.3293 197.261 98.3132C197.266 98.2971 197.267 98.28 197.264 98.2633L195.808 82.7054C195.806 82.6914 195.801 82.678 195.793 82.6659C195.786 82.6539 195.776 82.6434 195.764 82.6352C195.753 82.627 195.739 82.6211 195.725 82.618C195.711 82.6149 195.697 82.6147 195.683 82.6172C195.669 82.6195 195.655 82.6245 195.643 82.632C195.631 82.6395 195.621 82.6493 195.613 82.6608C195.604 82.6723 195.598 82.6854 195.595 82.6992C195.592 82.7129 195.591 82.7272 195.594 82.7412L197.026 98.1548L171.341 97.537C171.327 97.5332 171.313 97.5322 171.298 97.534C171.284 97.5359 171.27 97.5405 171.258 97.5478C171.245 97.5551 171.234 97.5647 171.225 97.5762C171.217 97.5877 171.211 97.6008 171.207 97.6147L171.052 111.451C171.045 111.478 171.05 111.507 171.064 111.531C171.078 111.555 171.102 111.573 171.129 111.58L205.344 113.631C205.349 113.632 205.354 113.633 205.359 113.633Z" fill="#0C0C0C"/>
</g>
<g id="Group_26">
<path id="Vector_72" d="M83.6144 106.005H80.7343L79.1188 99.7845C79.059 99.5632 78.9571 99.1057 78.8131 98.4119C78.6691 97.7182 78.5861 97.2525 78.5641 97.0148C78.5315 97.3063 78.4499 97.7746 78.3192 98.4199C78.1885 99.0651 78.088 99.5255 78.0176 99.8009L76.4101 106.005H73.5382L70.4946 94.1646H72.9833L74.509 100.628C74.7756 101.821 74.9687 102.855 75.0882 103.729C75.1208 103.422 75.1956 102.945 75.3127 102.3C75.4298 101.655 75.54 101.154 75.6432 100.798L77.381 94.1646H79.7716L81.5095 100.798C81.5855 101.095 81.6807 101.548 81.7951 102.158C81.9094 102.768 81.9962 103.292 82.0553 103.73C82.1097 103.309 82.1964 102.783 82.3156 102.154C82.4347 101.525 82.5431 101.016 82.6409 100.628L84.159 94.1648H86.6476L83.6144 106.005Z" fill="#7C89EF"/>
<path id="Vector_73" d="M95.021 106.005H88.1509V94.1646H95.021V96.2217H90.6805V98.8214H94.7193V100.878H90.6805V103.931H95.021V106.005Z" fill="#7C89EF"/>
<path id="Vector_74" d="M97.5093 106.005V94.1646H100.039V103.932H104.877V106.005L97.5093 106.005Z" fill="#7C89EF"/>
<path id="Vector_75" d="M112.017 96.0833C111.588 96.0639 111.161 96.1512 110.775 96.3372C110.388 96.5231 110.055 96.802 109.805 97.1483C109.282 97.8584 109.021 98.8479 109.021 100.117C109.021 102.757 110.02 104.078 112.016 104.078C113.058 104.038 114.086 103.827 115.059 103.453V105.559C114.017 105.976 112.902 106.183 111.779 106.167C110.044 106.167 108.717 105.644 107.797 104.599C106.878 103.555 106.418 102.055 106.419 100.1C106.394 98.9846 106.625 97.8782 107.096 96.8648C107.513 95.976 108.191 95.2334 109.042 94.7346C109.947 94.2254 110.975 93.9693 112.016 93.9937C113.228 94.0065 114.422 94.2917 115.507 94.8278L114.691 96.8689C114.253 96.6614 113.803 96.4775 113.345 96.318C112.919 96.166 112.47 96.0867 112.017 96.0833Z" fill="#7C89EF"/>
<path id="Vector_76" d="M128.424 100.068C128.424 102.028 127.935 103.534 126.956 104.587C125.977 105.64 124.573 106.167 122.746 106.167C120.918 106.167 119.515 105.64 118.536 104.587C117.556 103.535 117.067 102.023 117.067 100.052C117.067 98.081 117.558 96.576 118.54 95.5368C119.522 94.4976 120.929 93.9778 122.762 93.9775C124.595 93.9775 125.997 94.5014 126.968 95.549C127.939 96.5967 128.425 98.1031 128.424 100.068ZM119.719 100.068C119.719 101.391 119.972 102.387 120.478 103.057C120.984 103.726 121.74 104.061 122.746 104.061C124.764 104.061 125.773 102.73 125.773 100.068C125.773 97.4008 124.769 96.0672 122.762 96.0672C121.756 96.0672 120.997 96.4033 120.485 97.0756C119.973 97.7478 119.717 98.7453 119.719 100.068Z" fill="#7C89EF"/>
<path id="Vector_77" d="M135.947 106.005L133.075 96.7151H133.002C133.105 98.605 133.157 99.8657 133.157 100.497V106.005H130.896V94.1646H134.34L137.163 103.219H137.212L140.206 94.1646H143.649V106.005H141.291V100.4C141.291 100.136 141.295 99.8306 141.303 99.4849C141.311 99.1391 141.348 98.2213 141.414 96.7313H141.34L138.264 106.005H135.947Z" fill="#7C89EF"/>
<path id="Vector_78" d="M153.522 106.005H146.652V94.1646H153.522V96.2217H149.181V98.8214H153.22V100.878H149.181V103.931H153.522V106.005Z" fill="#7C89EF"/>
</g>
</g>
</g>
</g>
<defs>
<clipPath id="clip0_58_5210">
<rect width="215" height="119" fill="white" transform="translate(0.5)"/>
</clipPath>
</defs>
</svg>
