<svg width="94" height="113" viewBox="0 0 94 113" fill="none" xmlns="http://www.w3.org/2000/svg">
<g clip-path="url(#clip0_141_1442)">
<path opacity="0.2" d="M42.2802 107.248C65.631 107.248 84.5605 87.9745 84.5605 64.1992C84.5605 40.4239 65.631 21.1501 42.2802 21.1501C18.9295 21.1501 0 40.4239 0 64.1992C0 87.9745 18.9295 107.248 42.2802 107.248Z" fill="#9100CB"/>
<path d="M3.29415 100.306C1.48553 96.3365 0.547713 92.0141 0.545901 87.6387C0.54409 83.2632 1.47833 78.9399 3.28366 74.9694C5.08899 70.9988 7.72208 67.4763 10.9998 64.6468C14.2776 61.8172 18.1213 59.7486 22.2638 58.5847L24.7795 67.8451C21.9577 68.6371 19.3391 70.0455 17.106 71.9723C14.8729 73.8991 13.0788 76.2981 11.8486 79.0025C10.6184 81.7068 9.98161 84.6516 9.98246 87.6319C9.98331 90.6123 10.6218 93.5567 11.8536 96.2603L3.29415 100.306Z" fill="#9100CB"/>
<path d="M3.78803 113C3.26537 113 2.7528 112.853 2.30712 112.575C1.86144 112.297 1.50005 111.899 1.26299 111.425C0.600622 110.101 0.200949 108.656 0.086784 107.175C-0.0273809 105.693 0.146199 104.203 0.597613 102.789C1.50928 99.935 3.49729 97.5662 6.12429 96.2042C7.42505 95.5298 8.84353 95.1228 10.2988 95.0066C11.754 94.8904 13.2174 95.0671 14.6056 95.5267C17.409 96.455 19.7355 98.4791 21.0732 101.154C21.2452 101.492 21.3499 101.861 21.3812 102.24C21.4125 102.619 21.3698 103 21.2556 103.362C21.1414 103.725 20.958 104.06 20.7158 104.35C20.4736 104.639 20.1776 104.877 19.8447 105.05C19.5117 105.223 19.1486 105.326 18.7761 105.355C18.4036 105.384 18.0292 105.338 17.6743 105.219C17.3195 105.1 16.9913 104.911 16.7087 104.662C16.426 104.413 16.1945 104.11 16.0275 103.77C15.7035 103.118 15.2565 102.538 14.7121 102.063C14.1677 101.588 13.5366 101.227 12.8548 101C12.1731 100.773 11.4541 100.686 10.7391 100.743C10.0242 100.799 9.32718 100.999 8.68811 101.33C8.04904 101.662 7.48044 102.118 7.01485 102.673C6.54927 103.229 6.19585 103.872 5.97483 104.567C5.75381 105.262 5.66953 105.994 5.72682 106.722C5.7841 107.45 5.98183 108.159 6.30868 108.809C6.52819 109.248 6.63343 109.737 6.61434 110.23C6.59526 110.722 6.45249 111.202 6.19967 111.622C5.94685 112.042 5.59242 112.39 5.17022 112.631C4.74802 112.872 4.27214 112.999 3.78803 113V113Z" fill="#292A2E"/>
<path d="M76.9601 63.911C72.9834 67.369 68.1718 69.6829 63.0227 70.6134L61.3613 61.1545C65.9395 60.3144 70.0912 57.8876 73.1122 54.2858C76.1332 50.6841 77.8375 46.1291 77.9359 41.3937L87.3704 41.594C87.2242 49.311 84.1621 56.6736 78.8209 62.1507C78.2219 62.7669 77.6017 63.3537 76.9601 63.911Z" fill="#9100CB"/>
<path d="M90.0827 41.3194C88.477 42.7084 86.5165 43.6042 84.4299 43.9023C82.3433 44.2004 80.2164 43.8885 78.2972 43.003C76.378 42.1175 74.7455 40.6949 73.59 38.9009C72.4345 37.1069 71.8035 35.0155 71.7706 32.8704C71.7634 32.1088 72.0524 31.3752 72.5745 30.8299C73.0967 30.2846 73.8096 29.9719 74.5576 29.96C75.3055 29.9481 76.0276 30.2381 76.5662 30.7666C77.1048 31.2951 77.4161 32.0191 77.4322 32.7806C77.4546 34.253 78.0507 35.656 79.0891 36.6809C80.1275 37.7059 81.5234 38.2689 82.9695 38.246C84.4156 38.2231 85.7935 37.6162 86.8002 36.5589C87.8068 35.5016 88.3597 34.0804 88.3372 32.608C88.3256 31.8436 88.6126 31.1058 89.1352 30.5569C89.6578 30.008 90.3732 29.6929 91.1239 29.681C91.8746 29.6691 92.5993 29.9614 93.1384 30.4935C93.6775 31.0256 93.9869 31.754 93.9986 32.5183C94.0253 34.005 93.7621 35.4822 93.2243 36.8645C92.6864 38.2469 91.8847 39.5069 90.8654 40.5716C90.6149 40.8349 90.354 41.0842 90.0827 41.3194Z" fill="#292A2E"/>
<path d="M69.8899 0.219728L67.3219 7.80243C67.3056 7.85076 67.3006 7.90232 67.3074 7.95295C67.3143 8.00359 67.3327 8.05188 67.3612 8.09394C67.3897 8.13599 67.4276 8.17063 67.4717 8.19506C67.5158 8.21948 67.5649 8.23301 67.615 8.23454L69.3475 8.28718C69.3984 8.28873 69.4481 8.30257 69.4926 8.32758C69.5372 8.35258 69.5752 8.38803 69.6036 8.43097C69.632 8.47392 69.6499 8.52314 69.656 8.57455C69.662 8.62596 69.6559 8.67809 69.6381 8.72663L66.7802 16.5606C66.7535 16.6339 66.7536 16.7145 66.7804 16.7877C66.8072 16.861 66.859 16.922 66.9263 16.9596C66.9936 16.9972 67.0719 17.009 67.147 16.9928C67.2221 16.9765 67.289 16.9334 67.3354 16.8711L74.0644 7.84104C74.0942 7.80103 74.1146 7.75455 74.1238 7.70522C74.1331 7.65589 74.131 7.60505 74.1178 7.55666C74.1046 7.50828 74.0806 7.46365 74.0477 7.42626C74.0147 7.38888 73.9738 7.35974 73.928 7.34114L71.9125 6.52238C71.8731 6.50637 71.8372 6.48254 71.8069 6.45228C71.7767 6.42201 71.7526 6.38592 71.7361 6.34609C71.7197 6.30627 71.7111 6.26351 71.7111 6.2203C71.711 6.1771 71.7194 6.13431 71.7357 6.09442L73.9956 0.566658C74.0155 0.517941 74.0235 0.465032 74.0189 0.412475C74.0143 0.359919 73.9973 0.309285 73.9692 0.264921C73.9412 0.220558 73.9029 0.18379 73.8579 0.157776C73.8128 0.131762 73.7622 0.117278 73.7104 0.115569L70.2029 -7.45198e-05C70.1345 -0.00232183 70.0672 0.0178115 70.0109 0.0573709C69.9545 0.0969303 69.9121 0.153833 69.8899 0.219728Z" fill="#9100CB"/>
<path d="M4.29917 35.02L7.29137 40.9451C7.31037 40.9828 7.32039 41.0246 7.32064 41.0671C7.32088 41.1095 7.31134 41.1514 7.29278 41.1894C7.27422 41.2274 7.24716 41.2604 7.21377 41.2859C7.18039 41.3113 7.14161 41.3283 7.10056 41.3357L5.68232 41.5876C5.64073 41.595 5.60147 41.6124 5.56779 41.6384C5.53411 41.6643 5.50696 41.698 5.4886 41.7367C5.47023 41.7754 5.46118 41.8181 5.46217 41.861C5.46317 41.904 5.47419 41.9462 5.49433 41.9839L8.75457 48.0805C8.78447 48.1376 8.79335 48.2036 8.77963 48.2667C8.76591 48.3299 8.73049 48.3859 8.67975 48.4248C8.62901 48.4637 8.5663 48.4828 8.50292 48.4788C8.43954 48.4747 8.37966 48.4478 8.3341 48.4027L1.75251 41.7889C1.72344 41.7595 1.70139 41.7238 1.68809 41.6844C1.67479 41.6449 1.67059 41.6029 1.67582 41.5616C1.68105 41.5203 1.69556 41.4807 1.71824 41.446C1.74091 41.4113 1.77114 41.3824 1.80656 41.3615L3.36846 40.4456C3.39897 40.4277 3.42568 40.4038 3.44704 40.3752C3.4684 40.3467 3.48398 40.3141 3.49288 40.2794C3.50178 40.2447 3.50383 40.2085 3.4989 40.173C3.49398 40.1374 3.48217 40.1032 3.46418 40.0724L0.96389 35.7998C0.941999 35.7621 0.929386 35.7197 0.927126 35.676C0.924867 35.6323 0.933028 35.5886 0.950914 35.5489C0.9688 35.5091 0.995879 35.4743 1.02984 35.4474C1.0638 35.4206 1.10363 35.4026 1.14593 35.3948L4.0164 34.8775C4.07229 34.8675 4.12987 34.8759 4.18073 34.9015C4.2316 34.9272 4.2731 34.9687 4.29917 35.02Z" fill="#292A2E"/>
<path d="M15.9272 59.089L22.1831 95.1131C22.9918 99.77 25.3855 103.988 28.9442 107.027C32.5029 110.066 36.9991 111.732 41.6437 111.732C46.1719 111.732 50.5629 110.149 54.0819 107.247C57.6009 104.345 60.0345 100.301 60.9755 95.7914L68.6337 59.0885L15.9272 59.089Z" fill="#9100CB"/>
<path d="M42.2804 67.0222C56.8348 67.0222 68.6335 63.4704 68.6335 59.089C68.6335 54.7077 56.8348 51.1559 42.2804 51.1559C27.7259 51.1559 15.9272 54.7077 15.9272 59.089C15.9272 63.4704 27.7259 67.0222 42.2804 67.0222Z" fill="#292A2E"/>
<path d="M51.6572 79.4452H33.2116C31.4643 79.4452 30.0479 80.8874 30.0479 82.6665V91.7521C30.0479 93.5311 31.4643 94.9733 33.2116 94.9733H51.6572C53.4045 94.9733 54.8209 93.5311 54.8209 91.7521V82.6665C54.8209 80.8874 53.4045 79.4452 51.6572 79.4452Z" fill="#292A2E"/>
<path d="M40.436 87.4992H39.3394C39.3394 86.0283 39.9939 84.0011 43.1122 82.6969C44.9388 81.933 44.3341 79.1102 44.3276 79.0818L45.3964 78.832C45.4312 78.9856 46.2172 82.6055 43.5289 83.7289C41.4765 84.5873 40.436 85.8563 40.436 87.4992Z" fill="#9100CB"/>
<path d="M50.2744 95.6264C49.208 93.5904 48.763 93.6307 46.8863 93.8005C46.2754 93.8558 45.5152 93.9247 44.5872 93.9247C40.4334 93.9247 40.0011 90.8462 39.9971 90.8153L41.0848 90.6746L40.5408 90.7449L41.0841 90.6693C41.0967 90.7567 41.4288 92.8082 44.5869 92.8082C45.4662 92.8082 46.1691 92.7444 46.7889 92.6884C48.9002 92.497 49.8908 92.5212 51.2416 95.1009L50.2744 95.6264Z" fill="#9100CB"/>
<path d="M37.5983 88.0715C37.5609 88.0714 37.524 88.0623 37.4907 88.0447L36.3054 87.4226C36.25 87.3935 36.2083 87.3432 36.1893 87.2827C36.1704 87.2222 36.1758 87.1566 36.2044 87.1002C36.233 87.0438 36.2825 87.0013 36.3419 86.982C36.4013 86.9627 36.4657 86.9683 36.5211 86.9974L37.7064 87.6195C37.7533 87.644 37.7908 87.684 37.8127 87.7328C37.8346 87.7817 37.8398 87.8367 37.8273 87.8889C37.8148 87.9411 37.7854 87.9875 37.7439 88.0206C37.7024 88.0537 37.6511 88.0717 37.5983 88.0715Z" fill="white"/>
<path d="M36.1664 90.4394C36.1116 90.4392 36.0586 90.4196 36.0165 90.3838C35.9744 90.348 35.9459 90.2984 35.936 90.2435C35.9261 90.1886 35.9353 90.1319 35.9621 90.0832C35.9889 90.0345 36.0316 89.9969 36.0828 89.9768L37.3293 89.4937C37.3867 89.4744 37.4492 89.4785 37.5038 89.5049C37.5583 89.5314 37.6008 89.5782 37.6223 89.6357C37.6439 89.6932 37.6428 89.7569 37.6194 89.8136C37.596 89.8704 37.552 89.9157 37.4966 89.9403L36.2501 90.4236C36.2234 90.434 36.195 90.4394 36.1664 90.4394Z" fill="white"/>
<path d="M43.6629 89.4561C43.604 89.456 43.5473 89.4334 43.504 89.3928C43.4607 89.3522 43.4339 89.2965 43.429 89.2367C43.4241 89.177 43.4415 89.1175 43.4776 89.0701C43.5137 89.0228 43.566 88.9909 43.624 88.9809L44.94 88.7546C45.0013 88.7444 45.0641 88.7593 45.1146 88.7961C45.1651 88.8328 45.1993 88.8885 45.2097 88.9508C45.22 89.0132 45.2057 89.0772 45.1698 89.1288C45.134 89.1805 45.0795 89.2156 45.0183 89.2264L43.7024 89.4528C43.6893 89.455 43.6761 89.4561 43.6629 89.4561Z" fill="white"/>
<path d="M42.7007 87.8352C42.6587 87.8351 42.6174 87.8236 42.5813 87.8019C42.5451 87.7801 42.5153 87.7489 42.495 87.7114C42.4747 87.6739 42.4647 87.6316 42.4659 87.5889C42.4672 87.5461 42.4796 87.5045 42.502 87.4683L43.2141 86.3198C43.2302 86.2926 43.2515 86.2689 43.2768 86.2501C43.302 86.2313 43.3307 86.2179 43.3611 86.2106C43.3915 86.2032 43.423 86.2021 43.4539 86.2073C43.4847 86.2126 43.5142 86.224 43.5406 86.241C43.5671 86.258 43.5899 86.2801 43.6078 86.3062C43.6258 86.3323 43.6384 86.3618 43.645 86.3929C43.6516 86.424 43.652 86.4561 43.6463 86.4874C43.6405 86.5187 43.6287 86.5485 43.6115 86.575L42.8995 87.7235C42.8783 87.7577 42.849 87.7859 42.8142 87.8054C42.7794 87.8249 42.7404 87.8352 42.7007 87.8352Z" fill="white"/>
<path d="M56.1142 86.6637C53.833 86.6637 51.9297 86.0292 50.4421 84.7697C47.6935 82.4425 47.3988 78.8505 47.3872 78.6988L48.4807 78.6151L47.934 78.657L48.4805 78.6143C48.4832 78.6462 48.76 81.9001 51.1513 83.9184C52.7179 85.2399 54.8536 85.7612 57.5032 85.4674L57.6219 86.5774C57.1213 86.6339 56.618 86.6627 56.1142 86.6637Z" fill="#9100CB"/>
<path d="M27.5243 93.6029L27.3218 92.5055C31.5261 91.7006 31.5229 89.9197 31.5193 87.8579C31.517 86.4692 31.5141 84.8954 33.1208 83.975C36.1091 82.2633 35.8698 78.3836 35.8671 78.3444L36.9606 78.2606C36.9745 78.4484 37.2631 82.8832 33.6585 84.9478C32.6626 85.5184 32.6134 86.4244 32.6159 87.8555C32.6197 89.9813 32.6242 92.6264 27.5243 93.6029Z" fill="#9100CB"/>
<path d="M59.9316 61.5641C59.9106 61.5641 59.8896 61.562 59.8689 61.5577C58.6819 61.3146 56.4425 60.2816 56.4625 58.1098C56.4609 57.6841 56.5603 57.2642 56.7523 56.886C56.9442 56.5079 57.2231 56.1825 57.5651 55.9376C57.2151 55.2771 57.1115 54.51 57.2736 53.7779C57.7213 51.4026 60.0699 50.9865 61.2499 51.0991C61.3324 51.1072 61.4083 51.1482 61.4612 51.2133C61.514 51.2783 61.5394 51.3619 61.5317 51.446C61.5241 51.53 61.4841 51.6075 61.4205 51.6616C61.3569 51.7156 61.2748 51.7418 61.1922 51.7344C61.0765 51.7235 58.341 51.5009 57.8889 53.8981C57.7555 54.4767 57.8313 55.0848 58.1026 55.6111C59.2656 55.0397 60.8587 55.0369 61.59 55.6061C61.7365 55.7082 61.8506 55.8517 61.9182 56.0189C61.9858 56.186 62.004 56.3697 61.9705 56.5472C61.8242 57.324 60.9287 57.7117 59.7948 57.4899C59.081 57.3573 58.4279 56.9946 57.932 56.4552C57.6695 56.6414 57.4556 56.89 57.3087 57.1794C57.1619 57.4688 57.0865 57.7903 57.0892 58.116C57.069 60.3013 59.9637 60.9264 59.9929 60.9324C60.0691 60.948 60.1369 60.9919 60.1832 61.0555C60.2294 61.1192 60.2508 61.198 60.2431 61.2768C60.2354 61.3556 60.1992 61.4286 60.1415 61.4818C60.0839 61.5349 60.0089 61.5643 59.9311 61.5643L59.9316 61.5641ZM58.4969 56.1293C58.8921 56.5046 59.3832 56.7589 59.9139 56.8631C60.6613 57.0087 61.2817 56.8214 61.3561 56.4266C61.3673 56.3653 61.3593 56.302 61.333 56.2456C61.3068 56.1892 61.2638 56.1427 61.2101 56.1127C60.7371 55.7443 59.5042 55.6843 58.4969 56.1293Z" fill="white"/>
<path d="M33.1508 59.168C33.085 59.168 33.021 59.1469 32.9676 59.1078C32.9143 59.0686 32.8744 59.0134 32.8536 58.9499C32.8328 58.8863 32.8321 58.8178 32.8517 58.7539C32.8713 58.69 32.9102 58.6339 32.9628 58.5938C33.0303 58.5419 34.6077 57.3037 33.7109 55.8013C33.5185 55.4507 33.2167 55.1756 32.8533 55.0197C32.4617 55.9289 31.5761 56.7264 30.8805 56.7859C30.7339 56.8058 30.5848 56.7816 30.4515 56.7164C30.3182 56.6513 30.2065 56.5479 30.1301 56.419C30.0443 56.2672 30.0008 56.0944 30.0043 55.9192C30.0077 55.7441 30.0581 55.5732 30.1498 55.425C30.499 54.7756 31.3675 54.2902 32.2146 54.2708C32.2851 54.2695 32.3556 54.2708 32.4245 54.2754C32.4638 54.0586 32.453 53.8355 32.3929 53.6237C32.3328 53.4119 32.2251 53.2172 32.0783 53.0552C31.0478 51.8737 29.187 52.981 29.1685 52.9923C29.1332 53.0138 29.094 53.0279 29.0533 53.0339C29.0126 53.04 28.9711 53.0378 28.9312 53.0275C28.8913 53.0172 28.8538 52.999 28.8208 52.9739C28.7878 52.9489 28.76 52.9175 28.739 52.8815C28.7179 52.8455 28.704 52.8056 28.6981 52.7641C28.6922 52.7227 28.6943 52.6804 28.7044 52.6398C28.7145 52.5992 28.7324 52.561 28.757 52.5274C28.7816 52.4938 28.8125 52.4655 28.8478 52.4441C28.9418 52.3868 31.1764 51.06 32.5467 52.6313C32.7592 52.8678 32.9144 53.1517 32.9998 53.4602C33.0852 53.7687 33.0985 54.0933 33.0386 54.408C33.5482 54.6111 33.9744 54.9855 34.2463 55.469C35.2019 57.0686 34.0702 58.5456 33.3388 59.1032C33.2847 59.1451 33.2187 59.1679 33.1508 59.168ZM32.2108 54.9102C31.5289 54.9326 30.9081 55.3438 30.6989 55.7325C30.6622 55.7833 30.6397 55.8432 30.6338 55.9059C30.6279 55.9687 30.6387 56.0319 30.6652 56.0888C30.6809 56.1158 30.7085 56.1597 30.8285 56.1507C31.2212 56.1176 31.8662 55.5861 32.2105 54.9102H32.2108Z" fill="white"/>
<path d="M67.4594 32.6062C69.0634 44.1546 58.4201 51.3558 44.3387 53.3831C30.2574 55.4105 18.0708 51.4969 16.467 39.9477C14.8631 28.3985 24.4492 13.5872 38.5304 11.5599C52.6116 9.53254 65.8555 21.057 67.4594 32.6062Z" fill="#9100CB"/>
<path d="M53.951 20.2564L39.4484 22.3443C34.9025 22.9988 31.7384 27.2815 32.3811 31.9101C33.0239 36.5387 37.2302 39.7603 41.7761 39.1059L56.2787 37.018C60.8246 36.3635 63.9888 32.0808 63.346 27.4522C62.7032 22.8236 58.4969 19.6019 53.951 20.2564Z" fill="white"/>
<path d="M37.2832 2.62271L36.1587 2.84216L38.3306 14.3798L39.4551 14.1603L37.2832 2.62271Z" fill="#9100CB"/>
<path d="M36.8817 5.71662C38.0375 5.71662 38.9744 4.76267 38.9744 3.58591C38.9744 2.40915 38.0375 1.4552 36.8817 1.4552C35.726 1.4552 34.7891 2.40915 34.7891 3.58591C34.7891 4.76267 35.726 5.71662 36.8817 5.71662Z" fill="#292A2E"/>
<path d="M44.7364 33.8433C44.5329 33.8434 44.3349 33.7758 44.1724 33.6509L38.014 28.9348C37.9136 28.8599 37.8288 28.7655 37.7645 28.657C37.7002 28.5485 37.6577 28.428 37.6395 28.3027C37.6213 28.1773 37.6277 28.0496 37.6584 27.9268C37.6891 27.804 37.7434 27.6886 37.8182 27.5873C37.893 27.486 37.9868 27.4009 38.0942 27.3369C38.2016 27.2728 38.3204 27.2311 38.4437 27.2142C38.5671 27.1972 38.6925 27.2054 38.8127 27.2382C38.9329 27.271 39.0455 27.3278 39.144 27.4052L45.3021 32.1217C45.4601 32.2423 45.5767 32.4105 45.6355 32.6024C45.6943 32.7943 45.6922 33.0002 45.6296 33.1909C45.567 33.3815 45.447 33.5472 45.2867 33.6645C45.1264 33.7819 44.9338 33.8448 44.7364 33.8444V33.8433Z" fill="#292A2E"/>
<path d="M39.3411 34.62C39.1665 34.6199 38.9953 34.5702 38.8469 34.4766C38.6984 34.383 38.5785 34.2491 38.5006 34.09C38.4227 33.9309 38.3899 33.7528 38.4058 33.5758C38.4217 33.3987 38.4857 33.2297 38.5907 33.0876L43.2233 26.8173C43.3739 26.6168 43.5963 26.485 43.842 26.4507C44.0877 26.4163 44.3367 26.4822 44.5349 26.634C44.7331 26.7858 44.8643 27.0112 44.9 27.2611C44.9357 27.5109 44.873 27.7651 44.7255 27.968L40.093 34.2383C40.0054 34.357 39.8919 34.4533 39.7613 34.5196C39.6308 34.5859 39.4869 34.6202 39.3411 34.62Z" fill="#292A2E"/>
<path d="M58.1101 31.9176C57.9065 31.9176 57.7085 31.8501 57.5461 31.7252L51.388 27.0086C51.2885 26.9333 51.2047 26.8388 51.1413 26.7304C51.0779 26.6221 51.0361 26.502 51.0184 26.3772C51.0007 26.2524 51.0074 26.1252 51.0382 26.003C51.0689 25.8808 51.1231 25.766 51.1976 25.6652C51.272 25.5644 51.3653 25.4796 51.4721 25.4156C51.5789 25.3517 51.697 25.3098 51.8197 25.2925C51.9424 25.2752 52.0673 25.2827 52.1871 25.3147C52.3069 25.3467 52.4194 25.4025 52.518 25.4789L58.6761 30.1955C58.834 30.3162 58.9507 30.4843 59.0094 30.6762C59.0682 30.8681 59.0662 31.074 59.0036 31.2647C58.941 31.4553 58.821 31.621 58.6607 31.7384C58.5003 31.8557 58.3078 31.9186 58.1104 31.9182L58.1101 31.9176Z" fill="#292A2E"/>
<path d="M52.7148 32.6945C52.5401 32.6944 52.369 32.6448 52.2205 32.5512C52.072 32.4576 51.9521 32.3237 51.8742 32.1646C51.7963 32.0055 51.7634 31.8274 51.7793 31.6504C51.7952 31.4733 51.8592 31.3042 51.9642 31.1621L56.5966 24.8919C56.7465 24.689 56.9694 24.5551 57.2162 24.5196C57.4631 24.484 57.7137 24.5498 57.9129 24.7024C58.1121 24.855 58.2436 25.0819 58.2785 25.3332C58.3134 25.5846 58.2489 25.8397 58.099 26.0426L53.4666 32.3128C53.379 32.4316 53.2655 32.5279 53.135 32.5941C53.0045 32.6604 52.8606 32.6948 52.7148 32.6945Z" fill="#292A2E"/>
<path d="M49.1658 41.7237C49.4487 41.3423 49.8322 41.0507 50.2717 40.8828C50.7111 40.7148 51.1883 40.6775 51.6478 40.7751C52.1073 40.8727 52.5301 41.1013 52.8669 41.4342C53.2036 41.767 53.4406 42.1905 53.5501 42.6552C53.57 42.7374 53.5737 42.8229 53.5611 42.9065C53.5484 42.9902 53.5197 43.0706 53.4764 43.1429C53.4332 43.2152 53.3763 43.2781 53.3091 43.328C53.2419 43.3778 53.1656 43.4137 53.0847 43.4334C53.0039 43.4532 52.9199 43.4564 52.8378 43.443C52.7557 43.4296 52.677 43.3998 52.6063 43.3553C52.5355 43.3108 52.4741 43.2525 52.4255 43.1837C52.377 43.1149 52.3423 43.0371 52.3234 42.9546C52.2862 42.7967 52.2189 42.6477 52.1251 42.5163C52.0314 42.3849 51.9132 42.2735 51.7772 42.1886C51.6412 42.1037 51.4901 42.0469 51.3325 42.0214C51.175 41.996 51.014 42.0024 50.8589 42.0402C50.7038 42.0781 50.5575 42.1467 50.4284 42.2422C50.2993 42.3376 50.19 42.458 50.1066 42.5964C50.0232 42.7349 49.9674 42.8887 49.9424 43.0492C49.9174 43.2096 49.9237 43.3734 49.9609 43.5314C49.9986 43.6966 49.9707 43.8703 49.8832 44.0146C49.7956 44.1589 49.6556 44.262 49.4936 44.3016C49.3316 44.3411 49.1609 44.3138 49.0186 44.2256C48.8763 44.1374 48.7741 43.9955 48.7342 43.8308C48.6576 43.5089 48.6445 43.1747 48.6956 42.8475C48.7467 42.5204 48.861 42.2068 49.0319 41.925C49.0734 41.8554 49.1181 41.7883 49.1658 41.7237Z" fill="#292A2E"/>
</g>
<defs>
<clipPath id="clip0_141_1442">
<rect width="94" height="113" fill="white"/>
</clipPath>
</defs>
</svg>
