<svg width="25" height="24" viewBox="0 0 25 24" fill="none" xmlns="http://www.w3.org/2000/svg">
<path d="M6.80268 10.1919C8.33865 13.5372 11.0717 16.1969 14.4697 17.6388L15.0144 17.8815C16.2606 18.4367 17.7255 18.0149 18.4856 16.882L19.1974 15.8211C19.4288 15.4761 19.3583 15.0115 19.035 14.7507L16.6211 12.8033C16.2665 12.5172 15.7451 12.5839 15.4739 12.9499L14.7271 13.9575C12.8109 13.0123 11.2552 11.4566 10.3099 9.54037L11.3176 8.7936C11.6836 8.52236 11.7502 8.00098 11.4642 7.64641L9.51667 5.23237C9.25591 4.90914 8.79144 4.83863 8.44651 5.06992L7.37825 5.78621C6.23825 6.5506 5.81877 8.02763 6.38681 9.27711L6.80205 10.1905L6.80268 10.1919Z" fill="white" fill-opacity="0.8"/>
</svg>
