<svg width="160" height="160" viewBox="0 0 160 160" fill="none" xmlns="http://www.w3.org/2000/svg">
<g id="timeline">
<g id="Group">
<path id="Combined-Shape" d="M117.5 120L132.5 127.5L117.5 135V131.442L116.504 131.515C106.963 132.172 94.7945 132.5 80 132.5C63.7464 132.5 47.4928 131.311 31.2392 128.934C30.5275 128.83 30 128.219 30 127.5C30 126.781 30.5275 126.17 31.2392 126.066C47.4928 123.689 63.7464 122.5 80 122.5C95.3156 122.5 107.816 122.852 117.503 123.556L117.5 120Z" fill="#00B5CA"/>
<g id="Group_2">
<path id="Combined-Shape_2" d="M80 37.5C86.6728 37.5 93.3456 37.6336 100.018 37.9007L100 40C100 42.6113 100.071 45.2226 100.213 47.8338C100.419 51.6296 103.432 54.6709 107.226 54.9119C108.151 54.9706 109.075 55 110 55C110.925 55 111.849 54.9706 112.774 54.9119C116.568 54.6708 119.581 51.6296 119.787 47.8338C119.929 45.2226 120 42.6113 120 40C120 39.7012 119.999 39.4025 119.997 39.1037C120.471 39.1377 120.95 39.1767 121.43 39.2164L126.033 39.619C128.368 39.834 130.24 41.6432 130.535 43.9697C131.845 54.3132 132.5 64.6566 132.5 75C132.5 84.3091 131.969 93.6182 130.908 102.927L130.535 106.03C130.24 108.357 128.368 110.166 126.033 110.381C110.689 111.794 95.3443 112.5 80 112.5C66.1901 112.5 52.3802 111.928 38.5703 110.784L33.967 110.381C31.6318 110.166 29.7597 108.357 29.4651 106.03C28.155 95.6868 27.5 85.3434 27.5 75C27.5 65.6909 28.0306 56.3818 29.0917 47.0728L29.465 43.9697C29.7597 41.6432 31.6318 39.834 33.967 39.619C36.8142 39.3569 39.6614 39.1191 42.5085 38.9056L42.5 40C42.5 42.6113 42.5709 45.2226 42.7128 47.8338C42.9189 51.6296 45.9324 54.6709 49.7262 54.9119C50.6507 54.9706 51.5753 55 52.5 55C53.4247 55 54.3493 54.9706 55.2739 54.9119C59.0676 54.6708 62.081 51.6296 62.2872 47.8338C62.4291 45.2226 62.5 42.6113 62.5 40C62.5 39.2698 62.4945 38.5395 62.4834 37.8093C68.3193 37.6023 74.1597 37.5 80 37.5Z" fill="#CADFEA"/>
<path id="Combined-Shape_3" d="M52.5 27.5C53.0812 27.5 53.6624 27.5123 54.2435 27.5369L55.1153 27.5831C57.6445 27.7438 59.6535 29.7713 59.7909 32.3018C59.9303 34.8679 60 37.4339 60 40C60 41.7107 59.969 43.4214 59.9071 45.1321L59.7909 47.6982C59.6535 50.2287 57.6445 52.2562 55.1153 52.4169C54.2436 52.4723 53.3718 52.5 52.5 52.5C51.9188 52.5 51.3376 52.4877 50.7565 52.4631L49.8847 52.4169C47.3555 52.2562 45.3465 50.2287 45.2091 47.6982C45.0697 45.1321 45 42.5661 45 40C45 38.2893 45.031 36.5786 45.0929 34.8679L45.2091 32.3018C45.3465 29.7713 47.3555 27.7438 49.8847 27.5831C50.7564 27.5277 51.6282 27.5 52.5 27.5ZM110 27.5C110.581 27.5 111.162 27.5123 111.744 27.5369L112.615 27.5831C115.144 27.7438 117.153 29.7713 117.291 32.3018C117.43 34.8679 117.5 37.4339 117.5 40C117.5 41.7107 117.469 43.4214 117.407 45.1321L117.291 47.6982C117.153 50.2287 115.145 52.2562 112.615 52.4169C111.744 52.4723 110.872 52.5 110 52.5C109.419 52.5 108.838 52.4877 108.256 52.4631L107.385 52.4169C104.856 52.2562 102.847 50.2287 102.709 47.6982C102.57 45.1321 102.5 42.5661 102.5 40C102.5 38.2893 102.531 36.5786 102.593 34.8679L102.709 32.3018C102.847 29.7713 104.855 27.7438 107.385 27.5831C108.256 27.5277 109.128 27.5 110 27.5Z" fill="#00B5CA"/>
</g>
</g>
</g>
</svg>
