<svg width="160" height="160" viewBox="0 0 160 160" fill="none" xmlns="http://www.w3.org/2000/svg">
<g id="bag">
<g id="Group">
<g id="Group_2">
<path id="Rectangle" d="M70 52.5H90V45C90 43.6193 88.8807 42.5 87.5 42.5H72.5C71.1193 42.5 70 43.6193 70 45V52.5ZM72.5 37.5H87.5C91.6421 37.5 95 40.8579 95 45V57.5H65V45C65 40.8579 68.3579 37.5 72.5 37.5Z" fill="#00B5CA"/>
<path id="Combined-Shape" d="M132.49 85.3138C132.497 86.0402 132.5 86.7701 132.5 87.5C132.5 96.8091 131.969 106.118 130.908 115.427L130.535 118.53C130.24 120.857 128.368 122.666 126.033 122.881C110.689 124.294 95.3443 125 80 125C66.1901 125 52.3802 124.428 38.5703 123.284L33.967 122.881C31.6318 122.666 29.7597 120.857 29.4651 118.53C28.155 108.187 27.5 97.8434 27.5 87.5L27.5095 85.3138C28.778 87.4114 31.0309 88.8073 33.5815 88.9253C37.4055 89.1024 41.2295 89.2576 45.0536 89.3909L45.0681 90.127L45.1532 92.6905C45.3029 96.45 48.215 99.5167 51.9617 99.8606C52.9742 99.9535 53.987 100 55 100C56.013 100 57.0258 99.9535 58.0383 99.8606C61.785 99.5167 64.6971 96.45 64.8468 92.6905C64.8841 91.7544 64.9146 90.8183 64.9383 89.8822C69.9569 89.9623 74.9785 90 80 90C85.0215 90 90.0431 89.9623 95.0646 89.8868C95.0854 90.8183 95.1159 91.7544 95.1532 92.6905C95.3029 96.45 98.215 99.5167 101.962 99.8606C102.974 99.9535 103.987 100 105 100C106.013 100 107.026 99.9535 108.038 99.8606C111.785 99.5167 114.697 96.45 114.847 92.6905C114.891 91.5895 114.925 90.4885 114.95 89.3874C118.77 89.2576 122.594 89.1024 126.419 88.9253C128.969 88.8072 131.222 87.4114 132.49 85.3138Z" fill="#C9DFEA"/>
<path id="Combined-Shape_2" d="M80 50C93.2294 50 106.459 50.2625 119.688 50.7876L126.303 51.072C128.553 51.1761 130.455 52.7717 130.95 54.9691C131.983 59.5627 132.5 64.1564 132.5 68.75C132.5 72.8332 132.092 76.9165 131.275 80.9997L130.95 82.5309C130.455 84.7283 128.553 86.3238 126.303 86.428C122.531 86.6027 118.76 86.756 114.988 86.8879L115 85C115 82.4365 114.949 79.873 114.847 77.3095C114.697 73.55 111.785 70.4833 108.038 70.1394C107.026 70.0465 106.013 70 105 70C103.987 70 102.974 70.0465 101.962 70.1394C98.215 70.4833 95.3029 73.55 95.1532 77.3095C95.0511 79.873 95 82.4365 95 85C95 85.7936 95.0049 86.5873 95.0147 87.3809C90.0112 87.4624 85.0056 87.5 80 87.5C74.9944 87.5 69.9888 87.4624 64.9832 87.3872L65 85C65 82.4365 64.9489 79.873 64.8468 77.3095C64.6971 73.55 61.785 70.4833 58.0383 70.1394C57.0258 70.0465 56.013 70 55 70C53.987 70 52.9742 70.0465 51.9617 70.1394C48.215 70.4833 45.3029 73.55 45.1532 77.3095C45.0511 79.873 45 82.4365 45 85C45 85.6278 45.0031 86.2555 45.0092 86.8832C43.445 86.8331 41.8784 86.7746 40.3118 86.7124L33.6971 86.428C31.4472 86.3239 29.5447 84.7283 29.0503 82.5309C28.0168 77.9373 27.5 73.3436 27.5 68.75C27.5 64.6668 27.9083 60.5835 28.7249 56.5003L29.0504 54.9691C29.5447 52.7717 31.4472 51.1762 33.6971 51.072C49.1314 50.3573 64.5657 50 80 50Z" fill="#00B5CA"/>
<path id="Combined-Shape_3" d="M105 72.5C105.624 72.5 106.249 72.5191 106.873 72.5573L107.81 72.629C110.308 72.8582 112.249 74.9027 112.349 77.409C112.45 79.9393 112.5 82.4697 112.5 85C112.5 86.6869 112.478 88.3738 112.433 90.0607L112.349 92.591C112.249 95.0973 110.308 97.1418 107.81 97.371C106.873 97.457 105.937 97.5 105 97.5C104.376 97.5 103.751 97.4809 103.127 97.4427L102.19 97.371C99.6924 97.1418 97.751 95.0973 97.6512 92.591C97.5504 90.0607 97.5 87.5303 97.5 85C97.5 83.3131 97.5224 81.6262 97.5672 79.9393L97.6512 77.409C97.751 74.9027 99.6924 72.8582 102.19 72.6289C103.127 72.543 104.063 72.5 105 72.5ZM55 72.5C55.6244 72.5 56.2488 72.5191 56.8732 72.5573L57.8098 72.629C60.3076 72.8582 62.249 74.9027 62.3488 77.409C62.4496 79.9393 62.5 82.4697 62.5 85C62.5 86.6869 62.4776 88.3738 62.4328 90.0607L62.3488 92.591C62.249 95.0973 60.3076 97.1418 57.8098 97.371C56.8732 97.457 55.9366 97.5 55 97.5C54.3756 97.5 53.7512 97.4809 53.1268 97.4427L52.1902 97.371C49.6924 97.1418 47.751 95.0973 47.6512 92.591C47.5504 90.0607 47.5 87.5303 47.5 85C47.5 83.3131 47.5224 81.6262 47.5672 79.9393L47.6512 77.409C47.751 74.9027 49.6924 72.8582 52.1902 72.6289C53.1268 72.543 54.0634 72.5 55 72.5Z" fill="#C9DFEA"/>
</g>
</g>
</g>
</svg>
