<svg width="154" height="38" viewBox="0 0 154 38" fill="none" xmlns="http://www.w3.org/2000/svg">
<path d="M97.9045 23.9283C98.031 23.3382 98.1008 22.7376 98.113 22.1345C98.113 17.2466 94.0699 12.7175 87.4432 12.7175C85.4478 12.6694 83.4711 13.1082 81.6877 13.9951C79.9044 14.882 78.3691 16.1897 77.2177 17.8027L78.8675 13.4529H71.6879L68.3247 22.4215C67.7775 23.9212 67.3204 25.4515 66.9558 27.0045H66.847C66.5014 25.4523 66.0625 23.9219 65.5326 22.4215L62.1694 13.4529H55.1982V0H47.5743V22.6099C46.3868 16.583 41.1199 12.6906 34.883 12.6906C28.2654 12.6906 22.8535 16.9596 22.0195 23.4529C20.6778 19.7758 17.2693 17.4888 12.3015 16.1435C9.727 15.417 8.30375 14.5291 8.30375 12.861C8.30375 11.1928 9.61821 10 12.4556 10C14.6766 10.0832 16.8482 10.6725 18.8013 11.722L20.288 5.20179C17.6765 3.92703 14.7962 3.28456 11.8845 3.32735C4.62327 3.32735 0.471392 7.74888 0.471392 13.2646C0.471392 18.3049 3.52638 21.8924 10.0896 23.6682C13.199 24.4933 14.4047 25.5874 14.4047 27.5157C14.4047 29.4439 12.5916 30.8431 9.6726 30.8431C6.20375 30.7445 2.84047 29.6405 0 27.6682L0.788675 35.2108C3.68275 36.7392 6.91791 37.5255 10.1984 37.4978C17.4506 37.4978 21.5934 34.2601 22.4002 29.0135C23.9866 34.3946 28.9362 37.7579 34.8377 37.7579C41.1199 37.7579 46.3868 33.8655 47.529 27.8386V29.6323C47.529 35.3005 50.7925 37.7937 55.6877 38L58.4073 31.8117C56.3042 31.6592 55.1982 30.6188 55.1982 28.6906V14.7444L63.8555 37.2377H69.6391L75.1417 23.0135C75.0393 23.7084 74.9878 24.4098 74.9876 25.1121C74.9876 32.8072 80.8256 37.8027 88.0778 37.8027C90.6889 37.8677 93.2797 37.3335 95.6473 36.2422L96.3906 29.6861C94.4087 30.8714 92.1343 31.4922 89.8183 31.4798C85.7662 31.4798 83.1373 29.3005 82.7746 27.3722H94.4416L97.9045 23.9283ZM34.8377 31.3094C31.955 31.3094 29.4801 28.8161 29.4801 25.3274C29.4801 21.8386 31.955 19.3453 34.8377 19.3453C37.7204 19.3453 40.2043 21.8475 40.2043 25.3274C40.2043 28.8072 37.6842 31.3094 34.8377 31.3094ZM90.8155 22.2601H82.7746C82.9947 21.1974 83.5709 20.2392 84.41 19.5409C85.2491 18.8426 86.3019 18.445 87.3979 18.4126C88.2995 18.4144 89.1652 18.7622 89.8128 19.3828C90.4604 20.0034 90.8394 20.8484 90.8699 21.7399C90.8699 21.9462 90.8155 22.1076 90.8155 22.2601Z" fill="#FAFAFA"/>
<path d="M97.9048 37.5956C97.6758 37.525 97.4673 37.401 97.2969 37.2339C97.1265 37.0669 96.9992 36.8618 96.9257 36.6359C97.0011 36.412 97.1292 36.2091 97.2994 36.0438C97.4696 35.8785 97.6771 35.7556 97.9048 35.6852C98.1331 35.7543 98.3413 35.8767 98.5117 36.0422C98.6822 36.2077 98.8098 36.4113 98.8838 36.6359C98.8117 36.8625 98.6849 37.0684 98.5143 37.2356C98.3437 37.4028 98.1345 37.5263 97.9048 37.5956Z" fill="#FAFAFA"/>
<path d="M110.868 37.427L110.451 32.862C110.387 32.1803 110.324 31.3104 110.297 30.566C109.98 31.2745 109.481 32.2611 109.146 32.9068L106.77 37.5077H106.199L103.788 32.9068C103.443 32.2431 103.008 31.3373 102.655 30.5929C102.655 31.3732 102.546 32.2611 102.501 32.862L102.102 37.427H100.624L101.531 27.3104H102.492L105.211 32.5122C105.619 33.2924 106.118 34.3059 106.498 35.1131C106.825 34.3328 107.314 33.3194 107.749 32.5122L110.469 27.3104H111.43L112.336 37.427H110.868Z" fill="#FAFAFA"/>
<path d="M119.19 37.6137C118.145 37.589 117.131 37.2601 116.275 36.6682C115.418 36.0763 114.757 35.2476 114.374 34.2859C113.991 33.3242 113.903 32.2721 114.122 31.2612C114.34 30.2504 114.855 29.3257 115.602 28.6028C116.348 27.88 117.294 27.391 118.32 27.1972C119.347 27.0034 120.408 27.1132 121.371 27.5131C122.335 27.9129 123.158 28.585 123.737 29.4452C124.317 30.3053 124.627 31.3154 124.629 32.3491C124.633 33.0514 124.494 33.7474 124.22 34.3955C123.947 35.0436 123.544 35.6307 123.037 36.1219C122.53 36.6131 121.927 36.9982 121.266 37.2545C120.606 37.5108 119.899 37.6329 119.19 37.6137ZM119.19 28.4657C118.399 28.4407 117.619 28.6499 116.949 29.0664C116.28 29.483 115.751 30.0879 115.431 30.8037C115.111 31.5194 115.015 32.3134 115.154 33.0838C115.293 33.8541 115.662 34.5657 116.213 35.1274C116.764 35.689 117.472 36.0751 118.246 36.2361C119.02 36.3972 119.825 36.3258 120.558 36.0311C121.29 35.7365 121.918 35.232 122.359 34.5823C122.8 33.9327 123.035 33.1676 123.033 32.385C123.05 31.8756 122.963 31.368 122.778 30.8925C122.592 30.417 122.312 29.9835 121.953 29.6176C121.594 29.2518 121.165 28.9613 120.69 28.7634C120.215 28.5655 119.705 28.4642 119.19 28.4657Z" fill="#FAFAFA"/>
<path d="M135.163 37.6691L130.367 32.4853C129.597 31.6602 128.717 30.6467 128.01 29.7947C128.01 30.6916 128.01 31.5884 128.01 32.3328V37.409H126.46V27.3104H127.53L131.917 32.0637C132.516 32.7185 133.44 33.7319 134.066 34.4942C134.066 33.7229 134.066 32.844 134.066 32.1176V27.3104H135.625V37.6691H135.163Z" fill="#FAFAFA"/>
<path d="M137.991 37.427V27.3104H143.503V28.6288H139.55V31.6871H142.868V33.0055H139.55V36.1086H144.083V37.427H137.991Z" fill="#FAFAFA"/>
<path d="M150.102 32.7633V37.427H148.579V32.7633L144.672 27.3104H146.367L148.416 30.1624C148.724 30.5929 149.096 31.149 149.386 31.5884C149.676 31.149 150.075 30.566 150.365 30.1624L152.414 27.3104H154L150.102 32.7633Z" fill="#FAFAFA"/>
</svg>
