<svg width="72" height="72" viewBox="0 0 72 72" fill="none" xmlns="http://www.w3.org/2000/svg">
<g id="low cost icon">
<path d="M0 4C0 1.79086 1.79086 0 4 0H68C70.2091 0 72 1.79086 72 4V68C72 70.2091 70.2091 72 68 72H4C1.79086 72 0 70.2091 0 68V4Z" fill="#EDF2F7"/>
<path fill-rule="evenodd" clip-rule="evenodd" d="M39.75 20.1667C39.75 19.9365 39.5634 19.75 39.3333 19.75H27.6667C25.1354 19.75 23.0833 21.802 23.0833 24.3333V47.6667C23.0833 50.198 25.1354 52.25 27.6667 52.25H44.3333C46.8646 52.25 48.9167 50.198 48.9167 47.6667V31.2451C48.9167 31.015 48.7301 30.8284 48.5 30.8284H41C40.3096 30.8284 39.75 30.2688 39.75 29.5784V20.1667ZM41 36.4167C41.6904 36.4167 42.25 36.9763 42.25 37.6667C42.25 38.357 41.6904 38.9167 41 38.9167H31C30.3096 38.9167 29.75 38.357 29.75 37.6667C29.75 36.9763 30.3096 36.4167 31 36.4167H41ZM41 43.0833C41.6904 43.0833 42.25 43.643 42.25 44.3333C42.25 45.0237 41.6904 45.5833 41 45.5833H31C30.3096 45.5833 29.75 45.0237 29.75 44.3333C29.75 43.643 30.3096 43.0833 31 43.0833H41Z" fill="black"/>
<path d="M42.25 20.7069C42.25 20.3994 42.5711 20.2042 42.8103 20.3973C43.0118 20.56 43.193 20.7506 43.3475 20.9659L48.3695 27.9624C48.4838 28.1217 48.36 28.3284 48.1639 28.3284H42.6667C42.4365 28.3284 42.25 28.1419 42.25 27.9118V20.7069Z" fill="black"/>
</g>
</svg>
