<svg width="72" height="72" viewBox="0 0 72 72" fill="none" xmlns="http://www.w3.org/2000/svg">
<g id="quick icon">
<path d="M0 4C0 1.79086 1.79086 0 4 0H68C70.2091 0 72 1.79086 72 4V68C72 70.2091 70.2091 72 68 72H4C1.79086 72 0 70.2091 0 68V4Z" fill="#EDF2F7"/>
<path d="M41.7521 19.8948C41.7521 19.5361 41.522 19.212 41.1674 19.0715C40.8128 18.931 40.4023 19.0012 40.1245 19.2498L36.7062 22.309C31.6166 26.864 27.316 32.1254 23.9575 37.906C23.8785 38.036 23.8333 38.1862 23.8333 38.3462C23.8333 38.8404 24.2637 39.241 24.7946 39.241H33.0811V52.1052C33.0811 52.4596 33.3058 52.7805 33.654 52.9237C34.0022 53.0669 34.4084 53.0053 34.6898 52.7667L36.2193 51.4699C41.5732 46.9306 46.1168 41.6271 49.6796 35.7584L50.6256 34.2001C50.7938 33.9231 50.7913 33.5838 50.619 33.309C50.4467 33.0342 50.1305 32.8652 49.7887 32.8652H41.7521V19.8948Z" fill="#170707"/>
</g>
</svg>
