<svg width="25" height="24" viewBox="0 0 25 24" fill="none" xmlns="http://www.w3.org/2000/svg">
<path d="M12.3333 3.71631C9.02488 3.71631 6.3333 6.40789 6.3333 9.71628C6.3333 13.8221 11.7027 19.8497 11.9313 20.1043C12.146 20.3434 12.5209 20.343 12.7353 20.1043C12.9639 19.8497 18.3333 13.8221 18.3333 9.71628C18.3332 6.40789 15.6417 3.71631 12.3333 3.71631ZM12.3333 12.735C10.6688 12.735 9.31458 11.3808 9.31458 9.71628C9.31458 8.05173 10.6688 6.69756 12.3333 6.69756C13.9978 6.69756 15.352 8.05176 15.352 9.71631C15.352 11.3809 13.9978 12.735 12.3333 12.735Z" fill="white" fill-opacity="0.8"/>
</svg>
