<svg width="160" height="160" viewBox="0 0 160 160" fill="none" xmlns="http://www.w3.org/2000/svg">
<g id="task">
<g id="Group">
<g id="Group-3">
<g id="Group-2">
<path id="Combined-Shape" d="M80 32.5C92.2872 32.5 104.574 33.0592 116.862 34.1775L120.957 34.571C123.321 34.81 125.19 36.6791 125.429 39.0425C126.81 52.695 127.5 66.3475 127.5 80C127.5 83.544 127.453 87.088 127.36 90.6319C124.125 88.6449 120.321 87.5 116.25 87.5C104.514 87.5 95 97.0139 95 108.75C95 116.322 98.9603 122.969 104.923 126.732C96.6162 127.244 88.3081 127.5 80 127.5C67.7128 127.5 55.4255 126.941 43.1383 125.822L39.0425 125.429C36.679 125.19 34.81 123.321 34.571 120.957C33.1903 107.305 32.5 93.6525 32.5 80C32.5 67.7128 33.0592 55.4255 34.1775 43.1383L34.571 39.0425C34.81 36.679 36.6791 34.81 39.0425 34.571C52.695 33.1903 66.3475 32.5 80 32.5ZM93.75 70H51.25C49.1789 70 47.5 71.6789 47.5 73.75C47.5 75.6992 48.9872 77.3011 50.8888 77.4828L51.25 77.5H93.75C95.8211 77.5 97.5 75.8211 97.5 73.75C97.5 71.6789 95.8211 70 93.75 70ZM108.75 50H51.25C49.1789 50 47.5 51.6789 47.5 53.75C47.5 55.6992 48.9872 57.3011 50.8888 57.4828L51.25 57.5H108.75C110.821 57.5 112.5 55.8211 112.5 53.75C112.5 51.6789 110.821 50 108.75 50Z" fill="#C9DFEA"/>
</g>
<g id="Group_2">
<path id="Combined-Shape_2" d="M116.25 90C126.605 90 135 98.3947 135 108.75C135 119.105 126.605 127.5 116.25 127.5C105.895 127.5 97.5 119.105 97.5 108.75C97.5 98.3947 105.895 90 116.25 90ZM126.839 103.301C125.901 102.288 124.319 102.228 123.306 103.166L115.054 110.808L109.199 105.386C108.186 104.448 106.604 104.509 105.666 105.522C104.728 106.535 104.788 108.117 105.801 109.055L113.355 116.049C114.313 116.937 115.794 116.937 116.752 116.049L126.703 106.834C127.717 105.896 127.777 104.314 126.839 103.301Z" fill="#00B5CA"/>
</g>
</g>
</g>
</g>
</svg>
